<svg width="240" height="240" viewBox="0 0 240 240" fill="none" xmlns="http://www.w3.org/2000/svg">
<path d="M80.125 40.125H99.8746C99.8076 51.0025 91.0025 59.8076 80.125 59.8746V40.125Z" fill="black" stroke="#A9A9A9" stroke-width="0.25"/>
<path d="M159.875 40.125H140.125C140.192 51.0025 148.998 59.8076 159.875 59.8746V40.125Z" fill="black" stroke="#A9A9A9" stroke-width="0.25"/>
<path d="M80.125 160.125C91.0025 160.192 99.8076 168.998 99.8746 179.875H80.125V160.125Z" fill="black" stroke="#A9A9A9" stroke-width="0.25"/>
<path d="M159.875 160.125C148.998 160.192 140.192 168.998 140.125 179.875H159.875V160.125Z" fill="black" stroke="#A9A9A9" stroke-width="0.25"/>
<path d="M80.1254 39.875C80.1924 28.9975 88.9975 20.1924 99.875 20.1254V39.875H80.1254Z" fill="black" stroke="#A9A9A9" stroke-width="0.25"/>
<path d="M159.875 39.875C159.808 28.9975 151.002 20.1924 140.125 20.1254V39.875H159.875Z" fill="black" stroke="#A9A9A9" stroke-width="0.25"/>
<path d="M99.875 199.875C88.9975 199.808 80.1924 191.002 80.1254 180.125H99.875V199.875Z" fill="black" stroke="#A9A9A9" stroke-width="0.25"/>
<path d="M140.125 199.875C151.002 199.808 159.808 191.002 159.875 180.125H140.125V199.875Z" fill="black" stroke="#A9A9A9" stroke-width="0.25"/>
<rect x="40.125" y="80.125" width="19.75" height="19.75" fill="black" stroke="#A9A9A9" stroke-width="0.25"/>
<rect x="-0.125" y="0.125" width="19.75" height="19.75" transform="matrix(-1 0 0 1 199.75 80)" fill="black" stroke="#A9A9A9" stroke-width="0.25"/>
<path d="M40.1254 79.875C40.1924 68.9975 48.9975 60.1924 59.875 60.1254V79.875H40.1254Z" fill="black" stroke="#A9A9A9" stroke-width="0.25"/>
<path d="M199.875 79.875C199.808 68.9975 191.002 60.1924 180.125 60.1254V79.875H199.875Z" fill="black" stroke="#A9A9A9" stroke-width="0.25"/>
<rect x="40.125" y="100.125" width="19.75" height="19.75" fill="black" stroke="#A9A9A9" stroke-width="0.25"/>
<rect x="-0.125" y="0.125" width="19.75" height="19.75" transform="matrix(-1 0 0 1 199.75 100)" fill="black" stroke="#A9A9A9" stroke-width="0.25"/>
<path d="M59.875 159.875C48.9975 159.808 40.1924 151.002 40.1254 140.125H59.875V159.875Z" fill="black" stroke="#A9A9A9" stroke-width="0.25"/>
<path d="M180.125 159.875C191.002 159.808 199.808 151.002 199.875 140.125H180.125V159.875Z" fill="black" stroke="#A9A9A9" stroke-width="0.25"/>
<rect x="40.125" y="120.125" width="19.75" height="19.75" fill="black" stroke="#A9A9A9" stroke-width="0.25"/>
<rect x="-0.125" y="0.125" width="19.75" height="19.75" transform="matrix(-1 0 0 1 199.75 120)" fill="black" stroke="#A9A9A9" stroke-width="0.25"/>
<rect x="120.125" y="20.125" width="19.75" height="19.75" fill="black" stroke="#A9A9A9" stroke-width="0.25"/>
<rect x="120.125" y="180.125" width="19.75" height="19.75" fill="black" stroke="#A9A9A9" stroke-width="0.25"/>
<rect x="100.125" y="20.125" width="19.75" height="19.75" fill="black" stroke="#A9A9A9" stroke-width="0.25"/>
<rect x="100.125" y="180.125" width="19.75" height="19.75" fill="black" stroke="#A9A9A9" stroke-width="0.25"/>
<path d="M60.1254 59.875C60.1924 48.9975 68.9975 40.1924 79.875 40.1254V59.875H60.1254Z" fill="black" stroke="#A9A9A9" stroke-width="0.25"/>
<path d="M179.875 59.875C179.808 48.9975 171.002 40.1924 160.125 40.1254V59.875H179.875Z" fill="black" stroke="#A9A9A9" stroke-width="0.25"/>
<path d="M79.875 179.875C68.9975 179.808 60.1924 171.002 60.1254 160.125H79.875V179.875Z" fill="black" stroke="#A9A9A9" stroke-width="0.25"/>
<path d="M160.125 179.875C171.002 179.808 179.808 171.002 179.875 160.125H160.125V179.875Z" fill="black" stroke="#A9A9A9" stroke-width="0.25"/>
<path d="M60.125 60.125H79.8746C79.8076 71.0025 71.0025 79.8076 60.125 79.8746V60.125Z" fill="black" stroke="#A9A9A9" stroke-width="0.25"/>
<path d="M179.875 60.125H160.125C160.192 71.0025 168.998 79.8076 179.875 79.8746V60.125Z" fill="black" stroke="#A9A9A9" stroke-width="0.25"/>
<path d="M60.125 140.125C71.0025 140.192 79.8076 148.998 79.8746 159.875H60.125V140.125Z" fill="black" stroke="#A9A9A9" stroke-width="0.25"/>
<path d="M179.875 140.125C168.998 140.192 160.192 148.998 160.125 159.875H179.875V140.125Z" fill="black" stroke="#A9A9A9" stroke-width="0.25"/>
</svg>
