<svg width="240" height="240" viewBox="0 0 240 240" fill="none" xmlns="http://www.w3.org/2000/svg">
<path d="M80.1254 59.875C80.1924 48.9975 88.9975 40.1924 99.875 40.1254V59.875H80.1254Z" fill="black" stroke="#A9A9A9" stroke-width="0.25"/>
<path d="M80.125 60.125H99.8746C99.8076 71.0025 91.0025 79.8076 80.125 79.8746V60.125Z" fill="black" stroke="#A9A9A9" stroke-width="0.25"/>
<rect x="80.125" y="180.125" width="19.75" height="19.75" fill="black" stroke="#A9A9A9" stroke-width="0.25"/>
<rect x="120.125" y="40.125" width="19.75" height="19.75" fill="black" stroke="#A9A9A9" stroke-width="0.25"/>
<rect x="120.125" y="80.125" width="19.75" height="19.75" fill="black" stroke="#A9A9A9" stroke-width="0.25"/>
<rect x="120.125" y="120.125" width="19.75" height="19.75" fill="black" stroke="#A9A9A9" stroke-width="0.25"/>
<path d="M120.125 20.1254C131.002 20.1924 139.808 28.9975 139.875 39.875H120.125V20.1254Z" fill="black" stroke="#A9A9A9" stroke-width="0.25"/>
<rect x="120.125" y="60.125" width="19.75" height="19.75" fill="black" stroke="#A9A9A9" stroke-width="0.25"/>
<rect x="120.125" y="100.125" width="19.75" height="19.75" fill="black" stroke="#A9A9A9" stroke-width="0.25"/>
<rect x="120.125" y="160.125" width="19.75" height="19.75" fill="black" stroke="#A9A9A9" stroke-width="0.25"/>
<rect x="120.125" y="180.125" width="19.75" height="19.75" fill="black" stroke="#A9A9A9" stroke-width="0.25"/>
<rect x="120.125" y="140.125" width="19.75" height="19.75" fill="black" stroke="#A9A9A9" stroke-width="0.25"/>
<path d="M180.125 180.125H190C195.454 180.125 199.875 184.546 199.875 190C199.875 195.454 195.454 199.875 190 199.875H180.125V180.125Z" fill="black" stroke="#A9A9A9" stroke-width="0.25"/>
<path d="M100.125 40.125H119.875C119.808 51.0025 111.002 59.8076 100.125 59.8746V40.125Z" fill="black" stroke="#A9A9A9" stroke-width="0.25"/>
<path d="M100.125 39.875C100.192 28.9975 108.998 20.1924 119.875 20.1254V39.875H100.125Z" fill="black" stroke="#A9A9A9" stroke-width="0.25"/>
<rect x="100.125" y="180.125" width="19.75" height="19.75" fill="black" stroke="#A9A9A9" stroke-width="0.25"/>
<rect x="160.125" y="180.125" width="19.75" height="19.75" fill="black" stroke="#A9A9A9" stroke-width="0.25"/>
<path d="M60.1254 79.875C60.1924 68.9975 68.9975 60.1924 79.875 60.1254V79.875H60.1254Z" fill="black" stroke="#A9A9A9" stroke-width="0.25"/>
<path d="M60.125 190C60.125 184.546 64.5462 180.125 70 180.125H79.875V199.875H70C64.5462 199.875 60.125 195.454 60.125 190Z" fill="black" stroke="#A9A9A9" stroke-width="0.25"/>
<rect x="140.125" y="180.125" width="19.75" height="19.75" fill="black" stroke="#A9A9A9" stroke-width="0.25"/>
</svg>
