<svg width="240" height="240" viewBox="0 0 240 240" fill="none" xmlns="http://www.w3.org/2000/svg">
<rect x="80.125" y="20.125" width="19.75" height="19.75" fill="black" stroke="#A9A9A9" stroke-width="0.25"/>
<rect x="120.125" y="20.125" width="19.75" height="19.75" fill="black" stroke="#A9A9A9" stroke-width="0.25"/>
<rect x="80.125" y="100.125" width="19.75" height="19.75" fill="black" stroke="#A9A9A9" stroke-width="0.25"/>
<path d="M40.1254 59.875C40.1924 48.9975 48.9975 40.1924 59.875 40.1254V59.875H40.1254Z" fill="black" stroke="#A9A9A9" stroke-width="0.25"/>
<path d="M59.875 99.8746C48.9975 99.8076 40.1924 91.0025 40.1254 80.125H59.875V99.8746Z" fill="black" stroke="#A9A9A9" stroke-width="0.25"/>
<rect x="40.125" y="60.125" width="19.75" height="19.75" fill="black" stroke="#A9A9A9" stroke-width="0.25"/>
<rect x="120.125" y="100.125" width="19.75" height="19.75" fill="black" stroke="#A9A9A9" stroke-width="0.25"/>
<rect x="100.125" y="20.125" width="19.75" height="19.75" fill="black" stroke="#A9A9A9" stroke-width="0.25"/>
<rect x="100.125" y="100.125" width="19.75" height="19.75" fill="black" stroke="#A9A9A9" stroke-width="0.25"/>
<rect x="160.125" y="120.125" width="19.75" height="19.75" fill="black" stroke="#A9A9A9" stroke-width="0.25"/>
<rect x="160.125" y="80.125" width="19.75" height="19.75" fill="black" stroke="#A9A9A9" stroke-width="0.25"/>
<rect x="160.125" y="100.125" width="19.75" height="19.75" fill="black" stroke="#A9A9A9" stroke-width="0.25"/>
<rect x="160.125" y="60.125" width="19.75" height="19.75" fill="black" stroke="#A9A9A9" stroke-width="0.25"/>
<rect x="160.125" y="160.125" width="19.75" height="19.75" fill="black" stroke="#A9A9A9" stroke-width="0.25"/>
<rect x="160.125" y="140.125" width="19.75" height="19.75" fill="black" stroke="#A9A9A9" stroke-width="0.25"/>
<path d="M160.125 180.125H179.875V190C179.875 195.454 175.454 199.875 170 199.875C164.546 199.875 160.125 195.454 160.125 190V180.125Z" fill="black" stroke="#A9A9A9" stroke-width="0.25"/>
<path d="M60.125 40.125H79.8746C79.8076 51.0025 71.0025 59.8076 60.125 59.8746V40.125Z" fill="black" stroke="#A9A9A9" stroke-width="0.25"/>
<path d="M60.125 80.1254C71.0025 80.1924 79.8076 88.9975 79.8746 99.875H60.125V80.1254Z" fill="black" stroke="#A9A9A9" stroke-width="0.25"/>
<path d="M60.1254 39.875C60.1924 28.9975 68.9975 20.1924 79.875 20.1254V39.875H60.1254Z" fill="black" stroke="#A9A9A9" stroke-width="0.25"/>
<path d="M179.875 59.875C179.808 48.9975 171.002 40.1924 160.125 40.1254V59.875H179.875Z" fill="black" stroke="#A9A9A9" stroke-width="0.25"/>
<path d="M159.875 40.125H140.125C140.192 51.0025 148.998 59.8076 159.875 59.8746V40.125Z" fill="black" stroke="#A9A9A9" stroke-width="0.25"/>
<path d="M159.875 39.875C159.808 28.9975 151.002 20.1924 140.125 20.1254V39.875H159.875Z" fill="black" stroke="#A9A9A9" stroke-width="0.25"/>
<path d="M79.875 119.875C68.9975 119.808 60.1924 111.002 60.1254 100.125H79.875V119.875Z" fill="black" stroke="#A9A9A9" stroke-width="0.25"/>
<rect x="140.125" y="100.125" width="19.75" height="19.75" fill="black" stroke="#A9A9A9" stroke-width="0.25"/>
</svg>
