<svg width="240" height="240" viewBox="0 0 240 240" fill="none" xmlns="http://www.w3.org/2000/svg">
<path d="M80.125 60.125H99.8746C99.8076 71.0025 91.0025 79.8076 80.125 79.8746V60.125Z" fill="black" stroke="#A9A9A9" stroke-width="0.25"/>
<path d="M80.125 140.125H99.8746C99.8076 151.002 91.0025 159.808 80.125 159.875V140.125Z" fill="black" stroke="#A9A9A9" stroke-width="0.25"/>
<path d="M80.1254 59.875C80.1924 48.9975 88.9975 40.1924 99.875 40.1254V59.875H80.1254Z" fill="black" stroke="#A9A9A9" stroke-width="0.25"/>
<path d="M80.1254 139.875C80.1924 128.998 88.9975 120.192 99.875 120.125V139.875H80.1254Z" fill="black" stroke="#A9A9A9" stroke-width="0.25"/>
<rect x="80.125" y="180.125" width="19.75" height="19.75" fill="black" stroke="#A9A9A9" stroke-width="0.25"/>
<rect x="120.125" y="20.125" width="19.75" height="19.75" fill="black" stroke="#A9A9A9" stroke-width="0.25"/>
<path d="M120.125 99.875C120.192 88.9975 128.998 80.1924 139.875 80.1254V99.875H120.125Z" fill="black" stroke="#A9A9A9" stroke-width="0.25"/>
<path d="M120.125 100.125H139.875C139.808 111.002 131.002 119.808 120.125 119.875V100.125Z" fill="black" stroke="#A9A9A9" stroke-width="0.25"/>
<rect x="120.125" y="180.125" width="19.75" height="19.75" fill="black" stroke="#A9A9A9" stroke-width="0.25"/>
<path d="M180.125 180.125H190C195.454 180.125 199.875 184.546 199.875 190C199.875 195.454 195.454 199.875 190 199.875H180.125V180.125Z" fill="black" stroke="#A9A9A9" stroke-width="0.25"/>
<path d="M100.125 39.875C100.192 28.9975 108.998 20.1924 119.875 20.1254V39.875H100.125Z" fill="black" stroke="#A9A9A9" stroke-width="0.25"/>
<path d="M100.125 40.125H119.875C119.808 51.0025 111.002 59.8076 100.125 59.8746V40.125Z" fill="black" stroke="#A9A9A9" stroke-width="0.25"/>
<path d="M100.125 120.125H119.875C119.808 131.002 111.002 139.808 100.125 139.875V120.125Z" fill="black" stroke="#A9A9A9" stroke-width="0.25"/>
<path d="M100.125 119.875C100.192 108.998 108.998 100.192 119.875 100.125V119.875H100.125Z" fill="black" stroke="#A9A9A9" stroke-width="0.25"/>
<rect x="100.125" y="180.125" width="19.75" height="19.75" fill="black" stroke="#A9A9A9" stroke-width="0.25"/>
<path d="M160.125 60.125H179.875C179.808 71.0025 171.002 79.8076 160.125 79.8746V60.125Z" fill="black" stroke="#A9A9A9" stroke-width="0.25"/>
<path d="M160.125 40.1254C171.002 40.1924 179.808 48.9975 179.875 59.875H160.125V40.1254Z" fill="black" stroke="#A9A9A9" stroke-width="0.25"/>
<rect x="160.125" y="180.125" width="19.75" height="19.75" fill="black" stroke="#A9A9A9" stroke-width="0.25"/>
<path d="M60.1254 79.875C60.1924 68.9975 68.9975 60.1924 79.875 60.1254V79.875H60.1254Z" fill="black" stroke="#A9A9A9" stroke-width="0.25"/>
<path d="M79.875 199.875C68.9975 199.808 60.1924 191.002 60.1254 180.125H79.875V199.875Z" fill="black" stroke="#A9A9A9" stroke-width="0.25"/>
<path d="M140.125 20.1254C151.002 20.1924 159.808 28.9975 159.875 39.875H140.125V20.1254Z" fill="black" stroke="#A9A9A9" stroke-width="0.25"/>
<path d="M140.125 79.875C140.192 68.9975 148.998 60.1924 159.875 60.1254V79.875H140.125Z" fill="black" stroke="#A9A9A9" stroke-width="0.25"/>
<path d="M140.125 80.125H159.875C159.808 91.0025 151.002 99.8076 140.125 99.8746V80.125Z" fill="black" stroke="#A9A9A9" stroke-width="0.25"/>
<path d="M159.875 59.8746C148.998 59.8076 140.192 51.0025 140.125 40.125H159.875V59.8746Z" fill="black" stroke="#A9A9A9" stroke-width="0.25"/>
<rect x="140.125" y="180.125" width="19.75" height="19.75" fill="black" stroke="#A9A9A9" stroke-width="0.25"/>
<path d="M60.1254 159.875C60.1924 148.998 68.9975 140.192 79.875 140.125V159.875H60.1254Z" fill="black" stroke="#A9A9A9" stroke-width="0.25"/>
<rect x="60.125" y="160.125" width="19.75" height="19.75" fill="black" stroke="#A9A9A9" stroke-width="0.25"/>
</svg>
