<svg width="240" height="240" viewBox="0 0 240 240" fill="none" xmlns="http://www.w3.org/2000/svg">
<path d="M80.1254 39.875C80.1924 28.9975 88.9975 20.1924 99.875 20.1254V39.875H80.1254Z" fill="black" stroke="#A9A9A9" stroke-width="0.25"/>
<path d="M80.125 40.125H99.8746C99.8076 51.0025 91.0025 59.8076 80.125 59.8746V40.125Z" fill="black" stroke="#A9A9A9" stroke-width="0.25"/>
<path d="M80.125 160.125C91.0025 160.192 99.8076 168.998 99.8746 179.875H80.125V160.125Z" fill="black" stroke="#A9A9A9" stroke-width="0.25"/>
<path d="M99.875 199.875C88.9975 199.808 80.1924 191.002 80.1254 180.125H99.875V199.875Z" fill="black" stroke="#A9A9A9" stroke-width="0.25"/>
<rect x="120.125" y="20.125" width="19.75" height="19.75" fill="black" stroke="#A9A9A9" stroke-width="0.25"/>
<rect x="120.125" y="100.125" width="19.75" height="19.75" fill="black" stroke="#A9A9A9" stroke-width="0.25"/>
<rect x="140.125" y="100.125" width="19.75" height="19.75" fill="black" stroke="#A9A9A9" stroke-width="0.25"/>
<rect x="120.125" y="180.125" width="19.75" height="19.75" fill="black" stroke="#A9A9A9" stroke-width="0.25"/>
<rect x="100.125" y="20.125" width="19.75" height="19.75" fill="black" stroke="#A9A9A9" stroke-width="0.25"/>
<path d="M100.125 119.875C100.192 108.998 108.998 100.192 119.875 100.125V119.875H100.125Z" fill="black" stroke="#A9A9A9" stroke-width="0.25"/>
<rect x="100.125" y="180.125" width="19.75" height="19.75" fill="black" stroke="#A9A9A9" stroke-width="0.25"/>
<rect x="160.125" y="60.125" width="19.75" height="19.75" fill="black" stroke="#A9A9A9" stroke-width="0.25"/>
<rect x="160.125" y="140.125" width="19.75" height="19.75" fill="black" stroke="#A9A9A9" stroke-width="0.25"/>
<path d="M160.125 40.1254C171.002 40.1924 179.808 48.9975 179.875 59.875H160.125V40.1254Z" fill="black" stroke="#A9A9A9" stroke-width="0.25"/>
<path d="M160.125 80.125H179.875C179.808 91.0025 171.002 99.8076 160.125 99.8746V80.125Z" fill="black" stroke="#A9A9A9" stroke-width="0.25"/>
<path d="M160.125 120.125C171.002 120.192 179.808 128.998 179.875 139.875H160.125V120.125Z" fill="black" stroke="#A9A9A9" stroke-width="0.25"/>
<path d="M160.125 160.125H179.875C179.808 171.002 171.002 179.808 160.125 179.875V160.125Z" fill="black" stroke="#A9A9A9" stroke-width="0.25"/>
<path d="M60.1254 59.875C60.1924 48.9975 68.9975 40.1924 79.875 40.1254V59.875H60.1254Z" fill="black" stroke="#A9A9A9" stroke-width="0.25"/>
<path d="M79.875 179.875C68.9975 179.808 60.1924 171.002 60.1254 160.125H79.875V179.875Z" fill="black" stroke="#A9A9A9" stroke-width="0.25"/>
<path d="M140.125 20.1254C151.002 20.1924 159.808 28.9975 159.875 39.875H140.125V20.1254Z" fill="black" stroke="#A9A9A9" stroke-width="0.25"/>
<path d="M159.875 59.8746C148.998 59.8076 140.192 51.0025 140.125 40.125H159.875V59.8746Z" fill="black" stroke="#A9A9A9" stroke-width="0.25"/>
<path d="M140.125 99.875C140.192 88.9975 148.998 80.1924 159.875 80.1254V99.875H140.125Z" fill="black" stroke="#A9A9A9" stroke-width="0.25"/>
<path d="M159.875 139.875C148.998 139.808 140.192 131.002 140.125 120.125H159.875V139.875Z" fill="black" stroke="#A9A9A9" stroke-width="0.25"/>
<path d="M140.125 179.875C140.192 168.998 148.998 160.192 159.875 160.125V179.875H140.125Z" fill="black" stroke="#A9A9A9" stroke-width="0.25"/>
<path d="M140.125 180.125H159.875C159.808 191.002 151.002 199.808 140.125 199.875V180.125Z" fill="black" stroke="#A9A9A9" stroke-width="0.25"/>
</svg>
