<svg width="240" height="240" viewBox="0 0 240 240" fill="none" xmlns="http://www.w3.org/2000/svg">
<rect x="60.125" y="60.125" width="19.75" height="19.75" fill="black" stroke="#A9A9A9" stroke-width="0.25"/>
<path d="M60.1254 59.875C60.1924 48.9975 68.9975 40.1924 79.875 40.1254V59.875H60.1254Z" fill="black" stroke="#A9A9A9" stroke-width="0.25"/>
<path d="M60.125 80.125H79.8746C79.8076 91.0025 71.0025 99.8076 60.125 99.8746V80.125Z" fill="black" stroke="#A9A9A9" stroke-width="0.25"/>
<rect x="60.125" y="140.125" width="19.75" height="19.75" fill="black" stroke="#A9A9A9" stroke-width="0.25"/>
<path d="M39.875 159.875C28.9975 159.808 20.1924 151.002 20.1254 140.125H39.875V159.875Z" fill="black" stroke="#A9A9A9" stroke-width="0.25"/>
<path d="M20.1254 139.875C20.1924 128.998 28.9975 120.192 39.875 120.125V139.875H20.1254Z" fill="black" stroke="#A9A9A9" stroke-width="0.25"/>
<rect x="100.125" y="140.125" width="19.75" height="19.75" fill="black" stroke="#A9A9A9" stroke-width="0.25"/>
<rect x="160.125" y="140.125" width="19.75" height="19.75" fill="black" stroke="#A9A9A9" stroke-width="0.25"/>
<path d="M80.1254 39.875C80.1924 28.9975 88.9975 20.1924 99.875 20.1254V39.875H80.1254Z" fill="black" stroke="#A9A9A9" stroke-width="0.25"/>
<path d="M80.125 40.125H99.8746C99.8076 51.0025 91.0025 59.8076 80.125 59.8746V40.125Z" fill="black" stroke="#A9A9A9" stroke-width="0.25"/>
<rect x="80.125" y="140.125" width="19.75" height="19.75" fill="black" stroke="#A9A9A9" stroke-width="0.25"/>
<path d="M140.125 70C140.125 64.5462 144.546 60.125 150 60.125C155.454 60.125 159.875 64.5462 159.875 70V79.875H140.125V70Z" fill="black" stroke="#A9A9A9" stroke-width="0.25"/>
<rect x="140.125" y="100.125" width="19.75" height="19.75" fill="black" stroke="#A9A9A9" stroke-width="0.25"/>
<rect x="140.125" y="160.125" width="19.75" height="19.75" fill="black" stroke="#A9A9A9" stroke-width="0.25"/>
<rect x="140.125" y="80.125" width="19.75" height="19.75" fill="black" stroke="#A9A9A9" stroke-width="0.25"/>
<rect x="140.125" y="140.125" width="19.75" height="19.75" fill="black" stroke="#A9A9A9" stroke-width="0.25"/>
<rect x="140.125" y="120.125" width="19.75" height="19.75" fill="black" stroke="#A9A9A9" stroke-width="0.25"/>
<path d="M140.125 180.125H159.875V190C159.875 195.454 155.454 199.875 150 199.875C144.546 199.875 140.125 195.454 140.125 190V180.125Z" fill="black" stroke="#A9A9A9" stroke-width="0.25"/>
<rect x="40.125" y="100.125" width="19.75" height="19.75" fill="black" stroke="#A9A9A9" stroke-width="0.25"/>
<path d="M40.1254 99.875C40.1924 88.9975 48.9975 80.1924 59.875 80.1254V99.875H40.1254Z" fill="black" stroke="#A9A9A9" stroke-width="0.25"/>
<rect x="40.125" y="140.125" width="19.75" height="19.75" fill="black" stroke="#A9A9A9" stroke-width="0.25"/>
<path d="M40.125 120.125H59.8746C59.8076 131.002 51.0025 139.808 40.125 139.875V120.125Z" fill="black" stroke="#A9A9A9" stroke-width="0.25"/>
<rect x="120.125" y="140.125" width="19.75" height="19.75" fill="black" stroke="#A9A9A9" stroke-width="0.25"/>
<path d="M180.125 140.125H190C195.454 140.125 199.875 144.546 199.875 150C199.875 155.454 195.454 159.875 190 159.875H180.125V140.125Z" fill="black" stroke="#A9A9A9" stroke-width="0.25"/>
</svg>
