<svg width="240" height="240" viewBox="0 0 240 240" fill="none" xmlns="http://www.w3.org/2000/svg">
<rect x="80.125" y="20.125" width="19.75" height="19.75" fill="black" stroke="#A9A9A9" stroke-width="0.25"/>
<path d="M40.1254 59.875C40.1924 48.9975 48.9975 40.1924 59.875 40.1254V59.875H40.1254Z" fill="black" stroke="#A9A9A9" stroke-width="0.25"/>
<rect x="120.125" y="20.125" width="19.75" height="19.75" fill="black" stroke="#A9A9A9" stroke-width="0.25"/>
<rect x="100.125" y="20.125" width="19.75" height="19.75" fill="black" stroke="#A9A9A9" stroke-width="0.25"/>
<path d="M160.125 40.1254C171.002 40.1924 179.808 48.9975 179.875 59.875H160.125V40.1254Z" fill="black" stroke="#A9A9A9" stroke-width="0.25"/>
<path d="M160.125 99.8746C171.002 99.8076 179.808 91.0025 179.875 80.125H160.125V99.8746Z" fill="black" stroke="#A9A9A9" stroke-width="0.25"/>
<path d="M60.125 40.125H79.8746C79.8076 51.0025 71.0025 59.8076 60.125 59.8746V40.125Z" fill="black" stroke="#A9A9A9" stroke-width="0.25"/>
<path d="M40.1254 80.125C40.1924 91.0025 48.9975 99.8076 59.875 99.8746V80.125H40.1254Z" fill="black" stroke="#A9A9A9" stroke-width="0.25"/>
<path d="M60.125 99.875H79.8746C79.8076 88.9975 71.0025 80.1924 60.125 80.1254V99.875Z" fill="black" stroke="#A9A9A9" stroke-width="0.25"/>
<path d="M60.1254 39.875C60.1924 28.9975 68.9975 20.1924 79.875 20.1254V39.875H60.1254Z" fill="black" stroke="#A9A9A9" stroke-width="0.25"/>
<path d="M159.875 59.8746C148.998 59.8076 140.192 51.0025 140.125 40.125H159.875V59.8746Z" fill="black" stroke="#A9A9A9" stroke-width="0.25"/>
<path d="M159.875 80.1254C148.998 80.1924 140.192 88.9975 140.125 99.875H159.875V80.1254Z" fill="black" stroke="#A9A9A9" stroke-width="0.25"/>
<path d="M140.125 20.1254C151.002 20.1924 159.808 28.9975 159.875 39.875H140.125V20.1254Z" fill="black" stroke="#A9A9A9" stroke-width="0.25"/>
<rect x="139.875" y="199.875" width="19.75" height="19.75" transform="rotate(-180 139.875 199.875)" fill="black" stroke="#A9A9A9" stroke-width="0.25"/>
<path d="M179.875 160.125C179.808 171.002 171.002 179.808 160.125 179.875L160.125 160.125L179.875 160.125Z" fill="black" stroke="#A9A9A9" stroke-width="0.25"/>
<path d="M160.125 120.125C171.002 120.192 179.808 128.998 179.875 139.875L160.125 139.875L160.125 120.125Z" fill="black" stroke="#A9A9A9" stroke-width="0.25"/>
<rect x="179.875" y="159.875" width="19.75" height="19.75" transform="rotate(-180 179.875 159.875)" fill="black" stroke="#A9A9A9" stroke-width="0.25"/>
<rect x="179.875" y="79.875" width="19.75" height="19.75" transform="rotate(-180 179.875 79.875)" fill="black" stroke="#A9A9A9" stroke-width="0.25"/>
<rect x="99.875" y="199.875" width="19.75" height="19.75" transform="rotate(-180 99.875 199.875)" fill="black" stroke="#A9A9A9" stroke-width="0.25"/>
<rect x="119.875" y="199.875" width="19.75" height="19.75" transform="rotate(-180 119.875 199.875)" fill="black" stroke="#A9A9A9" stroke-width="0.25"/>
<path d="M59.875 179.875C48.9975 179.808 40.1924 171.002 40.1254 160.125L59.875 160.125L59.875 179.875Z" fill="black" stroke="#A9A9A9" stroke-width="0.25"/>
<path d="M59.875 139.875L40.1254 139.875C40.1924 128.998 48.9975 120.192 59.875 120.125L59.875 139.875Z" fill="black" stroke="#A9A9A9" stroke-width="0.25"/>
<rect x="59.875" y="159.875" width="19.75" height="19.75" transform="rotate(-180 59.875 159.875)" fill="black" stroke="#A9A9A9" stroke-width="0.25"/>
<rect x="59.875" y="79.875" width="19.75" height="19.75" transform="rotate(-180 59.875 79.875)" fill="black" stroke="#A9A9A9" stroke-width="0.25"/>
<path d="M159.875 179.875L140.125 179.875C140.192 168.998 148.998 160.192 159.875 160.125L159.875 179.875Z" fill="black" stroke="#A9A9A9" stroke-width="0.25"/>
<path d="M159.875 139.875C148.998 139.808 140.192 131.002 140.125 120.125L159.875 120.125L159.875 139.875Z" fill="black" stroke="#A9A9A9" stroke-width="0.25"/>
<path d="M159.875 180.125C159.808 191.002 151.002 199.808 140.125 199.875L140.125 180.125L159.875 180.125Z" fill="black" stroke="#A9A9A9" stroke-width="0.25"/>
<path d="M140.125 100.125C151.002 100.192 159.808 108.998 159.875 119.875L140.125 119.875L140.125 100.125Z" fill="black" stroke="#A9A9A9" stroke-width="0.25"/>
<path d="M60.125 160.125C71.0025 160.192 79.8076 168.998 79.8746 179.875L60.125 179.875L60.125 160.125Z" fill="black" stroke="#A9A9A9" stroke-width="0.25"/>
<path d="M79.8746 120.125C79.8076 131.002 71.0025 139.808 60.125 139.875L60.125 120.125L79.8746 120.125Z" fill="black" stroke="#A9A9A9" stroke-width="0.25"/>
<path d="M79.875 199.875C68.9975 199.808 60.1924 191.002 60.1254 180.125L79.875 180.125L79.875 199.875Z" fill="black" stroke="#A9A9A9" stroke-width="0.25"/>
<path d="M79.875 119.875L60.1254 119.875C60.1924 108.998 68.9975 100.192 79.875 100.125L79.875 119.875Z" fill="black" stroke="#A9A9A9" stroke-width="0.25"/>
<rect x="100.125" y="100.125" width="19.75" height="19.75" fill="black" stroke="#A9A9A9" stroke-width="0.25"/>
<rect x="120.125" y="100.125" width="19.75" height="19.75" fill="black" stroke="#A9A9A9" stroke-width="0.25"/>
<rect x="80.125" y="100.125" width="19.75" height="19.75" fill="black" stroke="#A9A9A9" stroke-width="0.25"/>
</svg>
