<svg width="240" height="240" viewBox="0 0 240 240" fill="none" xmlns="http://www.w3.org/2000/svg">
<path d="M80.125 60.125H99.8746C99.8076 71.0025 91.0025 79.8076 80.125 79.8746V60.125Z" fill="black" stroke="#A9A9A9" stroke-width="0.25"/>
<rect x="80.125" y="100.125" width="19.75" height="19.75" fill="black" stroke="#A9A9A9" stroke-width="0.25"/>
<path d="M80.1254 59.875C80.1924 48.9975 88.9975 40.1924 99.875 40.1254V59.875H80.1254Z" fill="black" stroke="#A9A9A9" stroke-width="0.25"/>
<path d="M40.1254 119.875C40.1924 108.998 48.9975 100.192 59.875 100.125V119.875H40.1254Z" fill="black" stroke="#A9A9A9" stroke-width="0.25"/>
<path d="M40.125 160.125H59.8746C59.8076 171.002 51.0025 179.808 40.125 179.875V160.125Z" fill="black" stroke="#A9A9A9" stroke-width="0.25"/>
<rect x="40.125" y="140.125" width="19.75" height="19.75" fill="black" stroke="#A9A9A9" stroke-width="0.25"/>
<rect x="40.125" y="120.125" width="19.75" height="19.75" fill="black" stroke="#A9A9A9" stroke-width="0.25"/>
<path d="M120.125 20.1254C131.002 20.1924 139.808 28.9975 139.875 39.875H120.125V20.1254Z" fill="black" stroke="#A9A9A9" stroke-width="0.25"/>
<rect x="120.125" y="100.125" width="19.75" height="19.75" fill="black" stroke="#A9A9A9" stroke-width="0.25"/>
<path d="M139.875 59.8746C128.998 59.8076 120.192 51.0025 120.125 40.125H139.875V59.8746Z" fill="black" stroke="#A9A9A9" stroke-width="0.25"/>
<path d="M180.125 100.125C191.002 100.192 199.808 108.998 199.875 119.875H180.125V100.125Z" fill="black" stroke="#A9A9A9" stroke-width="0.25"/>
<path d="M199.875 179.875C188.998 179.808 180.192 171.002 180.125 160.125H199.875V179.875Z" fill="black" stroke="#A9A9A9" stroke-width="0.25"/>
<rect x="180.125" y="140.125" width="19.75" height="19.75" fill="black" stroke="#A9A9A9" stroke-width="0.25"/>
<rect x="180.125" y="120.125" width="19.75" height="19.75" fill="black" stroke="#A9A9A9" stroke-width="0.25"/>
<path d="M20.1254 179.875C20.1924 168.998 28.9975 160.192 39.875 160.125V179.875H20.1254Z" fill="black" stroke="#A9A9A9" stroke-width="0.25"/>
<path d="M20.125 180.125H39.8746C39.8076 191.002 31.0025 199.808 20.125 199.875V180.125Z" fill="black" stroke="#A9A9A9" stroke-width="0.25"/>
<path d="M100.125 39.875C100.192 28.9975 108.998 20.1924 119.875 20.1254V39.875H100.125Z" fill="black" stroke="#A9A9A9" stroke-width="0.25"/>
<rect x="100.125" y="100.125" width="19.75" height="19.75" fill="black" stroke="#A9A9A9" stroke-width="0.25"/>
<path d="M100.125 40.125H119.875C119.808 51.0025 111.002 59.8076 100.125 59.8746V40.125Z" fill="black" stroke="#A9A9A9" stroke-width="0.25"/>
<path d="M160.125 60.1254C171.002 60.1924 179.808 68.9975 179.875 79.875H160.125V60.1254Z" fill="black" stroke="#A9A9A9" stroke-width="0.25"/>
<rect x="160.125" y="100.125" width="19.75" height="19.75" fill="black" stroke="#A9A9A9" stroke-width="0.25"/>
<rect x="160.125" y="80.125" width="19.75" height="19.75" fill="black" stroke="#A9A9A9" stroke-width="0.25"/>
<path d="M60.1254 79.875C60.1924 68.9975 68.9975 60.1924 79.875 60.1254V79.875H60.1254Z" fill="black" stroke="#A9A9A9" stroke-width="0.25"/>
<rect x="60.125" y="100.125" width="19.75" height="19.75" fill="black" stroke="#A9A9A9" stroke-width="0.25"/>
<rect x="60.125" y="80.125" width="19.75" height="19.75" fill="black" stroke="#A9A9A9" stroke-width="0.25"/>
<path d="M159.875 79.8746C148.998 79.8076 140.192 71.0025 140.125 60.125H159.875V79.8746Z" fill="black" stroke="#A9A9A9" stroke-width="0.25"/>
<rect x="140.125" y="100.125" width="19.75" height="19.75" fill="black" stroke="#A9A9A9" stroke-width="0.25"/>
<path d="M140.125 40.1254C151.002 40.1924 159.808 48.9975 159.875 59.875H140.125V40.1254Z" fill="black" stroke="#A9A9A9" stroke-width="0.25"/>
<path d="M200.125 160.125C211.002 160.192 219.808 168.998 219.875 179.875H200.125V160.125Z" fill="black" stroke="#A9A9A9" stroke-width="0.25"/>
<path d="M219.875 199.875C208.998 199.808 200.192 191.002 200.125 180.125H219.875V199.875Z" fill="black" stroke="#A9A9A9" stroke-width="0.25"/>
</svg>
