<svg width="240" height="240" viewBox="0 0 240 240" fill="none" xmlns="http://www.w3.org/2000/svg">
<rect x="80.125" y="20.125" width="19.75" height="19.75" fill="black" stroke="#A9A9A9" stroke-width="0.25"/>
<rect x="80.125" y="180.125" width="19.75" height="19.75" fill="black" stroke="#A9A9A9" stroke-width="0.25"/>
<path d="M40.1254 39.875C40.1924 28.9975 48.9975 20.1924 59.875 20.1254V39.875H40.1254Z" fill="black" stroke="#A9A9A9" stroke-width="0.25"/>
<rect x="40.125" y="60.125" width="19.75" height="19.75" fill="black" stroke="#A9A9A9" stroke-width="0.25"/>
<rect x="40.125" y="100.125" width="19.75" height="19.75" fill="black" stroke="#A9A9A9" stroke-width="0.25"/>
<path d="M59.875 199.875C48.9975 199.808 40.1924 191.002 40.1254 180.125H59.875V199.875Z" fill="black" stroke="#A9A9A9" stroke-width="0.25"/>
<rect x="40.125" y="40.125" width="19.75" height="19.75" fill="black" stroke="#A9A9A9" stroke-width="0.25"/>
<rect x="40.125" y="80.125" width="19.75" height="19.75" fill="black" stroke="#A9A9A9" stroke-width="0.25"/>
<rect x="40.125" y="140.125" width="19.75" height="19.75" fill="black" stroke="#A9A9A9" stroke-width="0.25"/>
<rect x="40.125" y="160.125" width="19.75" height="19.75" fill="black" stroke="#A9A9A9" stroke-width="0.25"/>
<rect x="40.125" y="120.125" width="19.75" height="19.75" fill="black" stroke="#A9A9A9" stroke-width="0.25"/>
<rect x="120.125" y="20.125" width="19.75" height="19.75" fill="black" stroke="#A9A9A9" stroke-width="0.25"/>
<rect x="120.125" y="180.125" width="19.75" height="19.75" fill="black" stroke="#A9A9A9" stroke-width="0.25"/>
<path d="M180.125 60.1254C191.002 60.1924 199.808 68.9975 199.875 79.875H180.125V60.1254Z" fill="black" stroke="#A9A9A9" stroke-width="0.25"/>
<rect x="180.125" y="100.125" width="19.75" height="19.75" fill="black" stroke="#A9A9A9" stroke-width="0.25"/>
<rect x="180.125" y="120.125" width="19.75" height="19.75" fill="black" stroke="#A9A9A9" stroke-width="0.25"/>
<rect x="180.125" y="80.125" width="19.75" height="19.75" fill="black" stroke="#A9A9A9" stroke-width="0.25"/>
<path d="M180.125 140.125H199.875C199.808 151.002 191.002 159.808 180.125 159.875V140.125Z" fill="black" stroke="#A9A9A9" stroke-width="0.25"/>
<rect x="100.125" y="20.125" width="19.75" height="19.75" fill="black" stroke="#A9A9A9" stroke-width="0.25"/>
<rect x="100.125" y="180.125" width="19.75" height="19.75" fill="black" stroke="#A9A9A9" stroke-width="0.25"/>
<path d="M179.875 79.8746C168.998 79.8076 160.192 71.0025 160.125 60.125H179.875V79.8746Z" fill="black" stroke="#A9A9A9" stroke-width="0.25"/>
<path d="M160.125 40.1254C171.002 40.1924 179.808 48.9975 179.875 59.875H160.125V40.1254Z" fill="black" stroke="#A9A9A9" stroke-width="0.25"/>
<path d="M160.125 160.125H179.875C179.808 171.002 171.002 179.808 160.125 179.875V160.125Z" fill="black" stroke="#A9A9A9" stroke-width="0.25"/>
<path d="M160.125 159.875C160.192 148.998 168.998 140.192 179.875 140.125V159.875H160.125Z" fill="black" stroke="#A9A9A9" stroke-width="0.25"/>
<rect x="60.125" y="20.125" width="19.75" height="19.75" fill="black" stroke="#A9A9A9" stroke-width="0.25"/>
<rect x="60.125" y="180.125" width="19.75" height="19.75" fill="black" stroke="#A9A9A9" stroke-width="0.25"/>
<path d="M140.125 20.1254C151.002 20.1924 159.808 28.9975 159.875 39.875H140.125V20.1254Z" fill="black" stroke="#A9A9A9" stroke-width="0.25"/>
<path d="M140.125 180.125H159.875C159.808 191.002 151.002 199.808 140.125 199.875V180.125Z" fill="black" stroke="#A9A9A9" stroke-width="0.25"/>
<path d="M159.875 59.8746C148.998 59.8076 140.192 51.0025 140.125 40.125H159.875V59.8746Z" fill="black" stroke="#A9A9A9" stroke-width="0.25"/>
<path d="M140.125 179.875C140.192 168.998 148.998 160.192 159.875 160.125V179.875H140.125Z" fill="black" stroke="#A9A9A9" stroke-width="0.25"/>
</svg>
