<svg width="240" height="240" viewBox="0 0 240 240" fill="none" xmlns="http://www.w3.org/2000/svg">
<rect x="100.125" y="100.125" width="19.75" height="19.75" fill="black" stroke="#A9A9A9" stroke-width="0.25"/>
<path d="M100.125 99.875C100.192 88.9975 108.998 80.1924 119.875 80.1254V99.875H100.125Z" fill="black" stroke="#A9A9A9" stroke-width="0.25"/>
<path d="M119.875 139.875C108.998 139.808 100.192 131.002 100.125 120.125H119.875V139.875Z" fill="black" stroke="#A9A9A9" stroke-width="0.25"/>
<path d="M40.125 30C40.125 24.5462 44.5462 20.125 50 20.125C55.4538 20.125 59.875 24.5462 59.875 30V39.875H40.125V30Z" fill="black" stroke="#A9A9A9" stroke-width="0.25"/>
<rect x="40.125" y="60.125" width="19.75" height="19.75" fill="black" stroke="#A9A9A9" stroke-width="0.25"/>
<rect x="40.125" y="100.125" width="19.75" height="19.75" fill="black" stroke="#A9A9A9" stroke-width="0.25"/>
<rect x="40.125" y="160.125" width="19.75" height="19.75" fill="black" stroke="#A9A9A9" stroke-width="0.25"/>
<rect x="40.125" y="40.125" width="19.75" height="19.75" fill="black" stroke="#A9A9A9" stroke-width="0.25"/>
<rect x="40.125" y="80.125" width="19.75" height="19.75" fill="black" stroke="#A9A9A9" stroke-width="0.25"/>
<rect x="40.125" y="140.125" width="19.75" height="19.75" fill="black" stroke="#A9A9A9" stroke-width="0.25"/>
<rect x="40.125" y="120.125" width="19.75" height="19.75" fill="black" stroke="#A9A9A9" stroke-width="0.25"/>
<path d="M40.125 180.125H59.875V190C59.875 195.454 55.4538 199.875 50 199.875C44.5462 199.875 40.125 195.454 40.125 190V180.125Z" fill="black" stroke="#A9A9A9" stroke-width="0.25"/>
<path d="M140.125 60.125H159.875C159.808 71.0025 151.002 79.8076 140.125 79.8746V60.125Z" fill="black" stroke="#A9A9A9" stroke-width="0.25"/>
<path d="M159.875 179.875C148.998 179.808 140.192 171.002 140.125 160.125H159.875V179.875Z" fill="black" stroke="#A9A9A9" stroke-width="0.25"/>
<path d="M140.125 59.875C140.192 48.9975 148.998 40.1924 159.875 40.1254V59.875H140.125Z" fill="black" stroke="#A9A9A9" stroke-width="0.25"/>
<path d="M140.125 140.125C151.002 140.192 159.808 148.998 159.875 159.875H140.125V140.125Z" fill="black" stroke="#A9A9A9" stroke-width="0.25"/>
<path d="M120.125 79.875C120.192 68.9975 128.998 60.1924 139.875 60.1254V79.875H120.125Z" fill="black" stroke="#A9A9A9" stroke-width="0.25"/>
<path d="M120.125 80.125H139.875C139.808 91.0025 131.002 99.8076 120.125 99.8746V80.125Z" fill="black" stroke="#A9A9A9" stroke-width="0.25"/>
<path d="M139.875 159.875C128.998 159.808 120.192 151.002 120.125 140.125H139.875V159.875Z" fill="black" stroke="#A9A9A9" stroke-width="0.25"/>
<path d="M120.125 120.125C131.002 120.192 139.808 128.998 139.875 139.875H120.125V120.125Z" fill="black" stroke="#A9A9A9" stroke-width="0.25"/>
<path d="M180.125 20.125H199.875C199.808 31.0025 191.002 39.8076 180.125 39.8746V20.125Z" fill="black" stroke="#A9A9A9" stroke-width="0.25"/>
<path d="M180.125 180.125C191.002 180.192 199.808 188.998 199.875 199.875H180.125V180.125Z" fill="black" stroke="#A9A9A9" stroke-width="0.25"/>
<rect x="60.125" y="100.125" width="19.75" height="19.75" fill="black" stroke="#A9A9A9" stroke-width="0.25"/>
<rect x="80.125" y="100.125" width="19.75" height="19.75" fill="black" stroke="#A9A9A9" stroke-width="0.25"/>
<path d="M160.125 39.875C160.192 28.9975 168.998 20.1924 179.875 20.1254V39.875H160.125Z" fill="black" stroke="#A9A9A9" stroke-width="0.25"/>
<path d="M160.125 160.125C171.002 160.192 179.808 168.998 179.875 179.875H160.125V160.125Z" fill="black" stroke="#A9A9A9" stroke-width="0.25"/>
<path d="M160.125 40.125H179.875C179.808 51.0025 171.002 59.8076 160.125 59.8746V40.125Z" fill="black" stroke="#A9A9A9" stroke-width="0.25"/>
<path d="M179.875 199.875C168.998 199.808 160.192 191.002 160.125 180.125H179.875V199.875Z" fill="black" stroke="#A9A9A9" stroke-width="0.25"/>
</svg>
