<svg width="240" height="240" viewBox="0 0 240 240" fill="none" xmlns="http://www.w3.org/2000/svg">
<path d="M80.125 20.1254C91.0025 20.1924 99.8076 28.9975 99.8746 39.875H80.125V20.1254Z" fill="black" stroke="#A9A9A9" stroke-width="0.25"/>
<path d="M99.875 59.8746C88.9975 59.8076 80.1924 51.0025 80.1254 40.125H99.875V59.8746Z" fill="black" stroke="#A9A9A9" stroke-width="0.25"/>
<rect x="40.125" y="60.125" width="19.75" height="19.75" fill="black" stroke="#A9A9A9" stroke-width="0.25"/>
<path d="M40.1254 59.875C40.1924 48.9975 48.9975 40.1924 59.875 40.1254V59.875H40.1254Z" fill="black" stroke="#A9A9A9" stroke-width="0.25"/>
<path d="M40.125 80.125H59.8746C59.8076 91.0025 51.0025 99.8076 40.125 99.8746V80.125Z" fill="black" stroke="#A9A9A9" stroke-width="0.25"/>
<path d="M160.125 20.1254C171.002 20.1924 179.808 28.9975 179.875 39.875H160.125V20.1254Z" fill="black" stroke="#A9A9A9" stroke-width="0.25"/>
<path d="M179.875 59.8746C168.998 59.8076 160.192 51.0025 160.125 40.125H179.875V59.8746Z" fill="black" stroke="#A9A9A9" stroke-width="0.25"/>
<rect x="20.125" y="100.125" width="19.75" height="19.75" fill="black" stroke="#A9A9A9" stroke-width="0.25"/>
<rect x="20.125" y="160.125" width="19.75" height="19.75" fill="black" stroke="#A9A9A9" stroke-width="0.25"/>
<path d="M20.1254 99.875C20.1924 88.9975 28.9975 80.1924 39.875 80.1254V99.875H20.1254Z" fill="black" stroke="#A9A9A9" stroke-width="0.25"/>
<rect x="20.125" y="140.125" width="19.75" height="19.75" fill="black" stroke="#A9A9A9" stroke-width="0.25"/>
<rect x="20.125" y="120.125" width="19.75" height="19.75" fill="black" stroke="#A9A9A9" stroke-width="0.25"/>
<path d="M20.125 180.125H39.875V190C39.875 195.454 35.4538 199.875 30 199.875C24.5462 199.875 20.125 195.454 20.125 190V180.125Z" fill="black" stroke="#A9A9A9" stroke-width="0.25"/>
<path d="M119.875 79.8746C108.998 79.8076 100.192 71.0025 100.125 60.125H119.875V79.8746Z" fill="black" stroke="#A9A9A9" stroke-width="0.25"/>
<path d="M100.125 40.1254C111.002 40.1924 119.808 48.9975 119.875 59.875H100.125V40.1254Z" fill="black" stroke="#A9A9A9" stroke-width="0.25"/>
<path d="M140.125 39.875C140.192 28.9975 148.998 20.1924 159.875 20.1254V39.875H140.125Z" fill="black" stroke="#A9A9A9" stroke-width="0.25"/>
<path d="M140.125 40.125H159.875C159.808 51.0025 151.002 59.8076 140.125 59.8746V40.125Z" fill="black" stroke="#A9A9A9" stroke-width="0.25"/>
<path d="M60.1254 39.875C60.1924 28.9975 68.9975 20.1924 79.875 20.1254V39.875H60.1254Z" fill="black" stroke="#A9A9A9" stroke-width="0.25"/>
<path d="M120.125 60.125H139.875C139.808 71.0025 131.002 79.8076 120.125 79.8746V60.125Z" fill="black" stroke="#A9A9A9" stroke-width="0.25"/>
<path d="M120.125 59.875C120.192 48.9975 128.998 40.1924 139.875 40.1254V59.875H120.125Z" fill="black" stroke="#A9A9A9" stroke-width="0.25"/>
<rect x="180.125" y="60.125" width="19.75" height="19.75" fill="black" stroke="#A9A9A9" stroke-width="0.25"/>
<path d="M180.125 40.1254C191.002 40.1924 199.808 48.9975 199.875 59.875H180.125V40.1254Z" fill="black" stroke="#A9A9A9" stroke-width="0.25"/>
<path d="M199.875 99.8746C188.998 99.8076 180.192 91.0025 180.125 80.125H199.875V99.8746Z" fill="black" stroke="#A9A9A9" stroke-width="0.25"/>
<rect x="200.125" y="100.125" width="19.75" height="19.75" fill="black" stroke="#A9A9A9" stroke-width="0.25"/>
<rect x="200.125" y="160.125" width="19.75" height="19.75" fill="black" stroke="#A9A9A9" stroke-width="0.25"/>
<path d="M200.125 80.1254C211.002 80.1924 219.808 88.9975 219.875 99.875H200.125V80.1254Z" fill="black" stroke="#A9A9A9" stroke-width="0.25"/>
<rect x="200.125" y="140.125" width="19.75" height="19.75" fill="black" stroke="#A9A9A9" stroke-width="0.25"/>
<rect x="200.125" y="120.125" width="19.75" height="19.75" fill="black" stroke="#A9A9A9" stroke-width="0.25"/>
<path d="M200.125 180.125H219.875V190C219.875 195.454 215.454 199.875 210 199.875C204.546 199.875 200.125 195.454 200.125 190V180.125Z" fill="black" stroke="#A9A9A9" stroke-width="0.25"/>
<path d="M60.125 40.125H79.8746C79.8076 51.0025 71.0025 59.8076 60.125 59.8746V40.125Z" fill="black" stroke="#A9A9A9" stroke-width="0.25"/>
</svg>
