<svg width="240" height="240" viewBox="0 0 240 240" fill="none" xmlns="http://www.w3.org/2000/svg">
<path d="M80.125 20.1254C91.0025 20.1924 99.8076 28.9975 99.8746 39.875H80.125V20.1254Z" fill="black" stroke="#A9A9A9" stroke-width="0.25"/>
<path d="M99.875 59.8746C88.9975 59.8076 80.1924 51.0025 80.1254 40.125H99.875V59.8746Z" fill="black" stroke="#A9A9A9" stroke-width="0.25"/>
<path d="M60.1254 39.875C60.1924 28.9975 68.9975 20.1924 79.875 20.1254V39.875H60.1254Z" fill="black" stroke="#A9A9A9" stroke-width="0.25"/>
<path d="M60.125 40.125H79.8746C79.8076 51.0025 71.0025 59.8076 60.125 59.8746V40.125Z" fill="black" stroke="#A9A9A9" stroke-width="0.25"/>
<path d="M180.125 199.875C191.002 199.808 199.808 191.002 199.875 180.125H180.125V199.875Z" fill="black" stroke="#A9A9A9" stroke-width="0.25"/>
<path d="M199.875 160.125C188.998 160.192 180.192 168.998 180.125 179.875H199.875V160.125Z" fill="black" stroke="#A9A9A9" stroke-width="0.25"/>
<path d="M160.125 180.125C160.192 191.002 168.998 199.808 179.875 199.875V180.125H160.125Z" fill="black" stroke="#A9A9A9" stroke-width="0.25"/>
<path d="M160.125 179.875H179.875C179.808 168.998 171.002 160.192 160.125 160.125V179.875Z" fill="black" stroke="#A9A9A9" stroke-width="0.25"/>
<rect x="120.125" y="120.125" width="19.75" height="19.75" fill="black" stroke="#A9A9A9" stroke-width="0.25"/>
<rect x="120.125" y="100.125" width="19.75" height="19.75" fill="black" stroke="#A9A9A9" stroke-width="0.25"/>
<path d="M120.125 80.1254C131.002 80.1924 139.808 88.9975 139.875 99.875H120.125V80.1254Z" fill="black" stroke="#A9A9A9" stroke-width="0.25"/>
<path d="M139.875 159.875C128.998 159.808 120.192 151.002 120.125 140.125H139.875V159.875Z" fill="black" stroke="#A9A9A9" stroke-width="0.25"/>
<rect x="40.125" y="60.125" width="19.75" height="19.75" fill="black" stroke="#A9A9A9" stroke-width="0.25"/>
<rect x="40.125" y="120.125" width="19.75" height="19.75" fill="black" stroke="#A9A9A9" stroke-width="0.25"/>
<rect x="40.125" y="100.125" width="19.75" height="19.75" fill="black" stroke="#A9A9A9" stroke-width="0.25"/>
<path d="M40.125 180.125H59.875V190C59.875 195.454 55.4538 199.875 50 199.875C44.5462 199.875 40.125 195.454 40.125 190V180.125Z" fill="black" stroke="#A9A9A9" stroke-width="0.25"/>
<path d="M40.1254 59.875C40.1924 48.9975 48.9975 40.1924 59.875 40.1254V59.875H40.1254Z" fill="black" stroke="#A9A9A9" stroke-width="0.25"/>
<rect x="40.125" y="80.125" width="19.75" height="19.75" fill="black" stroke="#A9A9A9" stroke-width="0.25"/>
<rect x="40.125" y="160.125" width="19.75" height="19.75" fill="black" stroke="#A9A9A9" stroke-width="0.25"/>
<rect x="40.125" y="140.125" width="19.75" height="19.75" fill="black" stroke="#A9A9A9" stroke-width="0.25"/>
<rect x="100.125" y="60.125" width="19.75" height="19.75" fill="black" stroke="#A9A9A9" stroke-width="0.25"/>
<path d="M100.125 40.1254C111.002 40.1924 119.808 48.9975 119.875 59.875H100.125V40.1254Z" fill="black" stroke="#A9A9A9" stroke-width="0.25"/>
<path d="M119.875 99.8746C108.998 99.8076 100.192 91.0025 100.125 80.125H119.875V99.8746Z" fill="black" stroke="#A9A9A9" stroke-width="0.25"/>
<path d="M159.875 179.875C148.998 179.808 140.192 171.002 140.125 160.125H159.875V179.875Z" fill="black" stroke="#A9A9A9" stroke-width="0.25"/>
<path d="M140.125 140.125C151.002 140.192 159.808 148.998 159.875 159.875H140.125V140.125Z" fill="black" stroke="#A9A9A9" stroke-width="0.25"/>
<path d="M200.125 30C200.125 24.5462 204.546 20.125 210 20.125C215.454 20.125 219.875 24.5462 219.875 30V39.875H200.125V30Z" fill="black" stroke="#A9A9A9" stroke-width="0.25"/>
<rect x="200.125" y="60.125" width="19.75" height="19.75" fill="black" stroke="#A9A9A9" stroke-width="0.25"/>
<rect x="200.125" y="120.125" width="19.75" height="19.75" fill="black" stroke="#A9A9A9" stroke-width="0.25"/>
<rect x="200.125" y="100.125" width="19.75" height="19.75" fill="black" stroke="#A9A9A9" stroke-width="0.25"/>
<path d="M200.125 160.125H219.875C219.808 171.002 211.002 179.808 200.125 179.875V160.125Z" fill="black" stroke="#A9A9A9" stroke-width="0.25"/>
<rect x="200.125" y="40.125" width="19.75" height="19.75" fill="black" stroke="#A9A9A9" stroke-width="0.25"/>
<rect x="200.125" y="80.125" width="19.75" height="19.75" fill="black" stroke="#A9A9A9" stroke-width="0.25"/>
<rect x="200.125" y="140.125" width="19.75" height="19.75" fill="black" stroke="#A9A9A9" stroke-width="0.25"/>
</svg>
