<svg width="240" height="240" viewBox="0 0 240 240" fill="none" xmlns="http://www.w3.org/2000/svg">
<path d="M159.875 180.125C159.808 191.002 151.002 199.808 140.125 199.875L140.125 180.125L159.875 180.125Z" fill="black" stroke="#A9A9A9" stroke-width="0.25"/>
<rect x="139.875" y="39.875" width="19.75" height="19.75" transform="rotate(-180 139.875 39.875)" fill="black" stroke="#A9A9A9" stroke-width="0.25"/>
<path d="M179.875 140.125L179.875 159.875C168.998 159.808 160.192 151.002 160.125 140.125L179.875 140.125Z" fill="black" stroke="#A9A9A9" stroke-width="0.25"/>
<path d="M160.125 40.1254C171.002 40.1924 179.808 48.9975 179.875 59.875L160.125 59.875L160.125 40.1254Z" fill="black" stroke="#A9A9A9" stroke-width="0.25"/>
<path d="M160.125 160.125C171.002 160.192 179.808 168.998 179.875 179.875L160.125 179.875L160.125 160.125Z" fill="black" stroke="#A9A9A9" stroke-width="0.25"/>
<path d="M179.875 79.8746C168.998 79.8076 160.192 71.0025 160.125 60.125L179.875 60.125L179.875 79.8746Z" fill="black" stroke="#A9A9A9" stroke-width="0.25"/>
<path d="M40.125 140.125C51.0025 140.192 59.8076 148.998 59.8746 159.875L40.125 159.875L40.125 140.125Z" fill="black" stroke="#A9A9A9" stroke-width="0.25"/>
<path d="M59.875 59.875L40.1254 59.875C40.1924 48.9975 48.9975 40.1924 59.875 40.1254L59.875 59.875Z" fill="black" stroke="#A9A9A9" stroke-width="0.25"/>
<path d="M59.875 179.875C48.9975 179.808 40.1924 171.002 40.1254 160.125L59.875 160.125L59.875 179.875Z" fill="black" stroke="#A9A9A9" stroke-width="0.25"/>
<path d="M59.8746 60.125C59.8076 71.0025 51.0025 79.8076 40.125 79.8746L40.125 60.125L59.8746 60.125Z" fill="black" stroke="#A9A9A9" stroke-width="0.25"/>
<path d="M199.875 140.125C199.808 151.002 191.002 159.808 180.125 159.875L180.125 140.125L199.875 140.125Z" fill="black" stroke="#A9A9A9" stroke-width="0.25"/>
<rect x="199.875" y="119.875" width="19.75" height="19.75" transform="rotate(-180 199.875 119.875)" fill="black" stroke="#A9A9A9" stroke-width="0.25"/>
<path d="M180.125 60.1254C191.002 60.1924 199.808 68.9975 199.875 79.875L180.125 79.875L180.125 60.1254Z" fill="black" stroke="#A9A9A9" stroke-width="0.25"/>
<rect x="199.875" y="99.875" width="19.75" height="19.75" transform="rotate(-180 199.875 99.875)" fill="black" stroke="#A9A9A9" stroke-width="0.25"/>
<rect x="119.875" y="199.875" width="19.75" height="19.75" transform="rotate(-180 119.875 199.875)" fill="black" stroke="#A9A9A9" stroke-width="0.25"/>
<rect x="139.875" y="199.875" width="19.75" height="19.75" transform="rotate(-180 139.875 199.875)" fill="black" stroke="#A9A9A9" stroke-width="0.25"/>
<rect x="119.875" y="39.875" width="19.75" height="19.75" transform="rotate(-180 119.875 39.875)" fill="black" stroke="#A9A9A9" stroke-width="0.25"/>
<path d="M79.875 199.875C68.9975 199.808 60.1924 191.002 60.1254 180.125L79.875 180.125L79.875 199.875Z" fill="black" stroke="#A9A9A9" stroke-width="0.25"/>
<path d="M79.8746 40.125C79.8076 51.0025 71.0025 59.8076 60.125 59.8746L60.125 40.125L79.8746 40.125Z" fill="black" stroke="#A9A9A9" stroke-width="0.25"/>
<path d="M60.125 160.125C71.0025 160.192 79.8076 168.998 79.8746 179.875L60.125 179.875L60.125 160.125Z" fill="black" stroke="#A9A9A9" stroke-width="0.25"/>
<path d="M79.875 39.875L60.1254 39.875C60.1924 28.9975 68.9975 20.1924 79.875 20.1254L79.875 39.875Z" fill="black" stroke="#A9A9A9" stroke-width="0.25"/>
<path d="M159.875 59.8746C148.998 59.8076 140.192 51.0025 140.125 40.125L159.875 40.125L159.875 59.8746Z" fill="black" stroke="#A9A9A9" stroke-width="0.25"/>
<path d="M140.125 20.1254C151.002 20.1924 159.808 28.9975 159.875 39.875L140.125 39.875L140.125 20.1254Z" fill="black" stroke="#A9A9A9" stroke-width="0.25"/>
<rect x="99.875" y="199.875" width="19.75" height="19.75" transform="rotate(-180 99.875 199.875)" fill="black" stroke="#A9A9A9" stroke-width="0.25"/>
<rect x="99.875" y="39.875" width="19.75" height="19.75" transform="rotate(-180 99.875 39.875)" fill="black" stroke="#A9A9A9" stroke-width="0.25"/>
<path d="M39.875 159.875C28.9975 159.808 20.1924 151.002 20.1254 140.125L39.875 140.125L39.875 159.875Z" fill="black" stroke="#A9A9A9" stroke-width="0.25"/>
<rect x="39.875" y="119.875" width="19.75" height="19.75" transform="rotate(-180 39.875 119.875)" fill="black" stroke="#A9A9A9" stroke-width="0.25"/>
<rect x="39.875" y="139.875" width="19.75" height="19.75" transform="rotate(-180 39.875 139.875)" fill="black" stroke="#A9A9A9" stroke-width="0.25"/>
<path d="M39.875 79.875L20.1254 79.875C20.1924 68.9975 28.9975 60.1924 39.875 60.1254L39.875 79.875Z" fill="black" stroke="#A9A9A9" stroke-width="0.25"/>
<rect x="39.875" y="99.875" width="19.75" height="19.75" transform="rotate(-180 39.875 99.875)" fill="black" stroke="#A9A9A9" stroke-width="0.25"/>
<rect x="199.875" y="139.875" width="19.75" height="19.75" transform="rotate(-180 199.875 139.875)" fill="black" stroke="#A9A9A9" stroke-width="0.25"/>
<path d="M140.125 140.125C151.002 140.192 159.808 148.998 159.875 159.875L140.125 159.875L140.125 140.125Z" fill="black" stroke="#A9A9A9" stroke-width="0.25"/>
<path d="M159.875 179.875C148.998 179.808 140.192 171.002 140.125 160.125L159.875 160.125L159.875 179.875Z" fill="black" stroke="#A9A9A9" stroke-width="0.25"/>
<path d="M139.875 159.875C128.998 159.808 120.192 151.002 120.125 140.125L139.875 140.125L139.875 159.875Z" fill="black" stroke="#A9A9A9" stroke-width="0.25"/>
<path d="M120.125 120.125C131.002 120.192 139.808 128.998 139.875 139.875L120.125 139.875L120.125 120.125Z" fill="black" stroke="#A9A9A9" stroke-width="0.25"/>
<path d="M179.875 199.875C168.998 199.808 160.192 191.002 160.125 180.125L179.875 180.125L179.875 199.875Z" fill="black" stroke="#A9A9A9" stroke-width="0.25"/>
<path d="M180.125 180.125C191.002 180.192 199.808 188.998 199.875 199.875L180.125 199.875L180.125 180.125Z" fill="black" stroke="#A9A9A9" stroke-width="0.25"/>
</svg>
