<svg width="240" height="240" viewBox="0 0 240 240" fill="none" xmlns="http://www.w3.org/2000/svg">
<path d="M80.125 40.125H99.8746C99.8076 51.0025 91.0025 59.8076 80.125 59.8746V40.125Z" fill="black" stroke="#A9A9A9" stroke-width="0.25"/>
<path d="M80.1254 39.875C80.1924 28.9975 88.9975 20.1924 99.875 20.1254V39.875H80.1254Z" fill="black" stroke="#A9A9A9" stroke-width="0.25"/>
<path d="M40.1254 79.875C40.1924 68.9975 48.9975 60.1924 59.875 60.1254V79.875H40.1254Z" fill="black" stroke="#A9A9A9" stroke-width="0.25"/>
<rect x="120.125" y="80.125" width="19.75" height="19.75" fill="black" stroke="#A9A9A9" stroke-width="0.25"/>
<rect x="120.125" y="20.125" width="19.75" height="19.75" fill="black" stroke="#A9A9A9" stroke-width="0.25"/>
<path d="M100.125 99.875C100.192 88.9975 108.998 80.1924 119.875 80.1254V99.875H100.125Z" fill="black" stroke="#A9A9A9" stroke-width="0.25"/>
<rect x="100.125" y="20.125" width="19.75" height="19.75" fill="black" stroke="#A9A9A9" stroke-width="0.25"/>
<path d="M100.125 120.125H119.875V130C119.875 135.454 115.454 139.875 110 139.875C104.546 139.875 100.125 135.454 100.125 130V120.125Z" fill="black" stroke="#A9A9A9" stroke-width="0.25"/>
<rect x="100.125" y="100.125" width="19.75" height="19.75" fill="black" stroke="#A9A9A9" stroke-width="0.25"/>
<path d="M100.125 160.125C111.002 160.192 119.808 168.998 119.875 179.875H100.125V160.125Z" fill="black" stroke="#A9A9A9" stroke-width="0.25"/>
<path d="M119.875 199.875C108.998 199.808 100.192 191.002 100.125 180.125H119.875V199.875Z" fill="black" stroke="#A9A9A9" stroke-width="0.25"/>
<path d="M160.125 40.1254C171.002 40.1924 179.808 48.9975 179.875 59.875H160.125V40.1254Z" fill="black" stroke="#A9A9A9" stroke-width="0.25"/>
<path d="M160.125 60.125H179.875C179.808 71.0025 171.002 79.8076 160.125 79.8746V60.125Z" fill="black" stroke="#A9A9A9" stroke-width="0.25"/>
<path d="M60.1254 59.875C60.1924 48.9975 68.9975 40.1924 79.875 40.1254V59.875H60.1254Z" fill="black" stroke="#A9A9A9" stroke-width="0.25"/>
<path d="M60.125 60.125H79.8746C79.8076 71.0025 71.0025 79.8076 60.125 79.8746V60.125Z" fill="black" stroke="#A9A9A9" stroke-width="0.25"/>
<path d="M159.875 59.8746C148.998 59.8076 140.192 51.0025 140.125 40.125H159.875V59.8746Z" fill="black" stroke="#A9A9A9" stroke-width="0.25"/>
<path d="M140.125 80.125H159.875C159.808 91.0025 151.002 99.8076 140.125 99.8746V80.125Z" fill="black" stroke="#A9A9A9" stroke-width="0.25"/>
<path d="M140.125 20.1254C151.002 20.1924 159.808 28.9975 159.875 39.875H140.125V20.1254Z" fill="black" stroke="#A9A9A9" stroke-width="0.25"/>
<path d="M140.125 79.875C140.192 68.9975 148.998 60.1924 159.875 60.1254V79.875H140.125Z" fill="black" stroke="#A9A9A9" stroke-width="0.25"/>
</svg>
