<svg width="240" height="240" viewBox="0 0 240 240" fill="none" xmlns="http://www.w3.org/2000/svg">
<rect x="40.125" y="60.125" width="19.75" height="19.75" fill="black" stroke="#A9A9A9" stroke-width="0.25"/>
<rect x="180.125" y="140.125" width="19.75" height="19.75" fill="black" stroke="#A9A9A9" stroke-width="0.25"/>
<rect x="80.125" y="20.125" width="19.75" height="19.75" fill="black" stroke="#A9A9A9" stroke-width="0.25"/>
<rect x="80.125" y="180.125" width="19.75" height="19.75" fill="black" stroke="#A9A9A9" stroke-width="0.25"/>
<path d="M40.1254 59.875C40.1924 48.9975 48.9975 40.1924 59.875 40.1254V59.875H40.1254Z" fill="black" stroke="#A9A9A9" stroke-width="0.25"/>
<path d="M60.125 80.1254C71.0025 80.1924 79.8076 88.9975 79.8746 99.875H60.125V80.1254Z" fill="black" stroke="#A9A9A9" stroke-width="0.25"/>
<path d="M40.125 140.125C51.0025 140.192 59.8076 148.998 59.8746 159.875H40.125V140.125Z" fill="black" stroke="#A9A9A9" stroke-width="0.25"/>
<path d="M79.875 119.875C68.9975 119.808 60.1924 111.002 60.1254 100.125H79.875V119.875Z" fill="black" stroke="#A9A9A9" stroke-width="0.25"/>
<path d="M59.875 179.875C48.9975 179.808 40.1924 171.002 40.1254 160.125H59.875V179.875Z" fill="black" stroke="#A9A9A9" stroke-width="0.25"/>
<rect x="100.125" y="100.125" width="19.75" height="19.75" fill="black" stroke="#A9A9A9" stroke-width="0.25"/>
<rect x="120.125" y="100.125" width="19.75" height="19.75" fill="black" stroke="#A9A9A9" stroke-width="0.25"/>
<rect x="140.125" y="100.125" width="19.75" height="19.75" fill="black" stroke="#A9A9A9" stroke-width="0.25"/>
<rect x="140.125" y="20.125" width="19.75" height="19.75" fill="black" stroke="#A9A9A9" stroke-width="0.25"/>
<rect x="140.125" y="180.125" width="19.75" height="19.75" fill="black" stroke="#A9A9A9" stroke-width="0.25"/>
<rect x="80.125" y="100.125" width="19.75" height="19.75" fill="black" stroke="#A9A9A9" stroke-width="0.25"/>
<rect x="100.125" y="20.125" width="19.75" height="19.75" fill="black" stroke="#A9A9A9" stroke-width="0.25"/>
<rect x="120.125" y="20.125" width="19.75" height="19.75" fill="black" stroke="#A9A9A9" stroke-width="0.25"/>
<rect x="100.125" y="180.125" width="19.75" height="19.75" fill="black" stroke="#A9A9A9" stroke-width="0.25"/>
<rect x="120.125" y="180.125" width="19.75" height="19.75" fill="black" stroke="#A9A9A9" stroke-width="0.25"/>
<path d="M180.125 40.1254C191.002 40.1924 199.808 48.9975 199.875 59.875H180.125V40.1254Z" fill="black" stroke="#A9A9A9" stroke-width="0.25"/>
<path d="M199.875 79.8746C188.998 79.8076 180.192 71.0025 180.125 60.125H199.875V79.8746Z" fill="black" stroke="#A9A9A9" stroke-width="0.25"/>
<path d="M180.125 120.125C191.002 120.192 199.808 128.998 199.875 139.875H180.125V120.125Z" fill="black" stroke="#A9A9A9" stroke-width="0.25"/>
<path d="M180.125 160.125H199.875C199.808 171.002 191.002 179.808 180.125 179.875V160.125Z" fill="black" stroke="#A9A9A9" stroke-width="0.25"/>
<path d="M60.125 40.125H79.8746C79.8076 51.0025 71.0025 59.8076 60.125 59.8746V40.125Z" fill="black" stroke="#A9A9A9" stroke-width="0.25"/>
<path d="M60.1254 39.875C60.1924 28.9975 68.9975 20.1924 79.875 20.1254V39.875H60.1254Z" fill="black" stroke="#A9A9A9" stroke-width="0.25"/>
<path d="M60.125 160.125C71.0025 160.192 79.8076 168.998 79.8746 179.875H60.125V160.125Z" fill="black" stroke="#A9A9A9" stroke-width="0.25"/>
<path d="M79.875 199.875C68.9975 199.808 60.1924 191.002 60.1254 180.125H79.875V199.875Z" fill="black" stroke="#A9A9A9" stroke-width="0.25"/>
<path d="M179.875 59.8746C168.998 59.8076 160.192 51.0025 160.125 40.125H179.875V59.8746Z" fill="black" stroke="#A9A9A9" stroke-width="0.25"/>
<path d="M160.125 100.125C171.002 100.192 179.808 108.998 179.875 119.875H160.125V100.125Z" fill="black" stroke="#A9A9A9" stroke-width="0.25"/>
<path d="M160.125 20.1254C171.002 20.1924 179.808 28.9975 179.875 39.875H160.125V20.1254Z" fill="black" stroke="#A9A9A9" stroke-width="0.25"/>
<path d="M179.875 139.875C168.998 139.808 160.192 131.002 160.125 120.125H179.875V139.875Z" fill="black" stroke="#A9A9A9" stroke-width="0.25"/>
<path d="M160.125 179.875C160.192 168.998 168.998 160.192 179.875 160.125V179.875H160.125Z" fill="black" stroke="#A9A9A9" stroke-width="0.25"/>
<path d="M160.125 180.125H179.875C179.808 191.002 171.002 199.808 160.125 199.875V180.125Z" fill="black" stroke="#A9A9A9" stroke-width="0.25"/>
<path d="M59.875 99.8746C48.9975 99.8076 40.1924 91.0025 40.1254 80.125H59.875V99.8746Z" fill="black" stroke="#A9A9A9" stroke-width="0.25"/>
</svg>
