<svg width="240" height="240" viewBox="0 0 240 240" fill="none" xmlns="http://www.w3.org/2000/svg">
<path d="M80.125 160.125C91.0025 160.192 99.8076 168.998 99.8746 179.875H80.125V160.125Z" fill="black" stroke="#A9A9A9" stroke-width="0.25"/>
<path d="M99.875 199.875C88.9975 199.808 80.1924 191.002 80.1254 180.125H99.875V199.875Z" fill="black" stroke="#A9A9A9" stroke-width="0.25"/>
<rect x="40.125" y="40.125" width="19.75" height="19.75" fill="black" stroke="#A9A9A9" stroke-width="0.25"/>
<rect x="40.125" y="80.125" width="19.75" height="19.75" fill="black" stroke="#A9A9A9" stroke-width="0.25"/>
<rect x="40.125" y="120.125" width="19.75" height="19.75" fill="black" stroke="#A9A9A9" stroke-width="0.25"/>
<path d="M40.125 30C40.125 24.5462 44.5462 20.125 50 20.125C55.4538 20.125 59.875 24.5462 59.875 30V39.875H40.125V30Z" fill="black" stroke="#A9A9A9" stroke-width="0.25"/>
<rect x="40.125" y="60.125" width="19.75" height="19.75" fill="black" stroke="#A9A9A9" stroke-width="0.25"/>
<rect x="40.125" y="100.125" width="19.75" height="19.75" fill="black" stroke="#A9A9A9" stroke-width="0.25"/>
<path d="M59.875 159.875C48.9975 159.808 40.1924 151.002 40.1254 140.125H59.875V159.875Z" fill="black" stroke="#A9A9A9" stroke-width="0.25"/>
<path d="M160.125 160.125H179.875C179.808 171.002 171.002 179.808 160.125 179.875V160.125Z" fill="black" stroke="#A9A9A9" stroke-width="0.25"/>
<path d="M160.125 159.875C160.192 148.998 168.998 140.192 179.875 140.125V159.875H160.125Z" fill="black" stroke="#A9A9A9" stroke-width="0.25"/>
<rect x="100.125" y="180.125" width="19.75" height="19.75" fill="black" stroke="#A9A9A9" stroke-width="0.25"/>
<path d="M140.125 179.875C140.192 168.998 148.998 160.192 159.875 160.125V179.875H140.125Z" fill="black" stroke="#A9A9A9" stroke-width="0.25"/>
<path d="M140.125 180.125H159.875C159.808 191.002 151.002 199.808 140.125 199.875V180.125Z" fill="black" stroke="#A9A9A9" stroke-width="0.25"/>
<path d="M79.875 179.875C68.9975 179.808 60.1924 171.002 60.1254 160.125H79.875V179.875Z" fill="black" stroke="#A9A9A9" stroke-width="0.25"/>
<path d="M60.125 140.125C71.0025 140.192 79.8076 148.998 79.8746 159.875H60.125V140.125Z" fill="black" stroke="#A9A9A9" stroke-width="0.25"/>
<rect x="120.125" y="180.125" width="19.75" height="19.75" fill="black" stroke="#A9A9A9" stroke-width="0.25"/>
<rect x="180.125" y="40.125" width="19.75" height="19.75" fill="black" stroke="#A9A9A9" stroke-width="0.25"/>
<rect x="180.125" y="80.125" width="19.75" height="19.75" fill="black" stroke="#A9A9A9" stroke-width="0.25"/>
<rect x="180.125" y="120.125" width="19.75" height="19.75" fill="black" stroke="#A9A9A9" stroke-width="0.25"/>
<path d="M180.125 30C180.125 24.5462 184.546 20.125 190 20.125C195.454 20.125 199.875 24.5462 199.875 30V39.875H180.125V30Z" fill="black" stroke="#A9A9A9" stroke-width="0.25"/>
<rect x="180.125" y="60.125" width="19.75" height="19.75" fill="black" stroke="#A9A9A9" stroke-width="0.25"/>
<rect x="180.125" y="100.125" width="19.75" height="19.75" fill="black" stroke="#A9A9A9" stroke-width="0.25"/>
<path d="M180.125 140.125H199.875C199.808 151.002 191.002 159.808 180.125 159.875V140.125Z" fill="black" stroke="#A9A9A9" stroke-width="0.25"/>
</svg>
