<svg width="240" height="240" viewBox="0 0 240 240" fill="none" xmlns="http://www.w3.org/2000/svg">
<path d="M80.125 120.125C91.0025 120.192 99.8076 128.998 99.8746 139.875H80.125V120.125Z" fill="black" stroke="#A9A9A9" stroke-width="0.25"/>
<path d="M99.875 179.875C88.9975 179.808 80.1924 171.002 80.1254 160.125H99.875V179.875Z" fill="black" stroke="#A9A9A9" stroke-width="0.25"/>
<rect x="80.125" y="140.125" width="19.75" height="19.75" fill="black" stroke="#A9A9A9" stroke-width="0.25"/>
<path d="M40.125 40.1254C51.0025 40.1924 59.8076 48.9975 59.8746 59.875H40.125V40.1254Z" fill="black" stroke="#A9A9A9" stroke-width="0.25"/>
<path d="M20.125 20.1254C31.0025 20.1924 39.8076 28.9975 39.8746 39.875H20.125V20.1254Z" fill="black" stroke="#A9A9A9" stroke-width="0.25"/>
<path d="M59.875 99.8746C48.9975 99.8076 40.1924 91.0025 40.1254 80.125H59.875V99.8746Z" fill="black" stroke="#A9A9A9" stroke-width="0.25"/>
<rect x="40.125" y="60.125" width="19.75" height="19.75" fill="black" stroke="#A9A9A9" stroke-width="0.25"/>
<path d="M160.125 99.875C160.192 88.9975 168.998 80.1924 179.875 80.1254V99.875H160.125Z" fill="black" stroke="#A9A9A9" stroke-width="0.25"/>
<path d="M160.125 120.125H179.875C179.808 131.002 171.002 139.808 160.125 139.875V120.125Z" fill="black" stroke="#A9A9A9" stroke-width="0.25"/>
<rect x="160.125" y="100.125" width="19.75" height="19.75" fill="black" stroke="#A9A9A9" stroke-width="0.25"/>
<path d="M39.875 59.8746C28.9975 59.8076 20.1924 51.0025 20.1254 40.125H39.875V59.8746Z" fill="black" stroke="#A9A9A9" stroke-width="0.25"/>
<path d="M119.875 199.875C108.998 199.808 100.192 191.002 100.125 180.125H119.875V199.875Z" fill="black" stroke="#A9A9A9" stroke-width="0.25"/>
<path d="M100.125 160.125C111.002 160.192 119.808 168.998 119.875 179.875H100.125V160.125Z" fill="black" stroke="#A9A9A9" stroke-width="0.25"/>
<path d="M140.125 139.875C140.192 128.998 148.998 120.192 159.875 120.125V139.875H140.125Z" fill="black" stroke="#A9A9A9" stroke-width="0.25"/>
<path d="M140.125 160.125H159.875C159.808 171.002 151.002 179.808 140.125 179.875V160.125Z" fill="black" stroke="#A9A9A9" stroke-width="0.25"/>
<rect x="140.125" y="140.125" width="19.75" height="19.75" fill="black" stroke="#A9A9A9" stroke-width="0.25"/>
<path d="M60.125 80.1254C71.0025 80.1924 79.8076 88.9975 79.8746 99.875H60.125V80.1254Z" fill="black" stroke="#A9A9A9" stroke-width="0.25"/>
<path d="M79.875 139.875C68.9975 139.808 60.1924 131.002 60.1254 120.125H79.875V139.875Z" fill="black" stroke="#A9A9A9" stroke-width="0.25"/>
<rect x="60.125" y="100.125" width="19.75" height="19.75" fill="black" stroke="#A9A9A9" stroke-width="0.25"/>
<path d="M120.125 180.125H139.875C139.808 191.002 131.002 199.808 120.125 199.875V180.125Z" fill="black" stroke="#A9A9A9" stroke-width="0.25"/>
<path d="M120.125 179.875C120.192 168.998 128.998 160.192 139.875 160.125V179.875H120.125Z" fill="black" stroke="#A9A9A9" stroke-width="0.25"/>
<path d="M180.125 59.875C180.192 48.9975 188.998 40.1924 199.875 40.1254V59.875H180.125Z" fill="black" stroke="#A9A9A9" stroke-width="0.25"/>
<path d="M200.125 39.875C200.192 28.9975 208.998 20.1924 219.875 20.1254V39.875H200.125Z" fill="black" stroke="#A9A9A9" stroke-width="0.25"/>
<path d="M180.125 80.125H199.875C199.808 91.0025 191.002 99.8076 180.125 99.8746V80.125Z" fill="black" stroke="#A9A9A9" stroke-width="0.25"/>
<rect x="180.125" y="60.125" width="19.75" height="19.75" fill="black" stroke="#A9A9A9" stroke-width="0.25"/>
<path d="M200.125 40.125H219.875C219.808 51.0025 211.002 59.8076 200.125 59.8746V40.125Z" fill="black" stroke="#A9A9A9" stroke-width="0.25"/>
</svg>
