<svg width="240" height="240" viewBox="0 0 240 240" fill="none" xmlns="http://www.w3.org/2000/svg">
<path d="M80.125 160.125H99.8746C99.8076 171.002 91.0025 179.808 80.125 179.875V160.125Z" fill="black" stroke="#A9A9A9" stroke-width="0.25"/>
<path d="M80.1254 159.875C80.1924 148.998 88.9975 140.192 99.875 140.125V159.875H80.1254Z" fill="black" stroke="#A9A9A9" stroke-width="0.25"/>
<path d="M59.875 199.875C48.9975 199.808 40.1924 191.002 40.1254 180.125H59.875V199.875Z" fill="black" stroke="#A9A9A9" stroke-width="0.25"/>
<path d="M40.125 160.125C51.0025 160.192 59.8076 168.998 59.8746 179.875H40.125V160.125Z" fill="black" stroke="#A9A9A9" stroke-width="0.25"/>
<path d="M160.125 180.125H179.875C179.808 191.002 171.002 199.808 160.125 199.875V180.125Z" fill="black" stroke="#A9A9A9" stroke-width="0.25"/>
<path d="M160.125 179.875C160.192 168.998 168.998 160.192 179.875 160.125V179.875H160.125Z" fill="black" stroke="#A9A9A9" stroke-width="0.25"/>
<rect x="20.125" y="40.125" width="19.75" height="19.75" fill="black" stroke="#A9A9A9" stroke-width="0.25"/>
<rect x="20.125" y="80.125" width="19.75" height="19.75" fill="black" stroke="#A9A9A9" stroke-width="0.25"/>
<rect x="20.125" y="120.125" width="19.75" height="19.75" fill="black" stroke="#A9A9A9" stroke-width="0.25"/>
<path d="M20.125 30C20.125 24.5462 24.5462 20.125 30 20.125C35.4538 20.125 39.875 24.5462 39.875 30V39.875H20.125V30Z" fill="black" stroke="#A9A9A9" stroke-width="0.25"/>
<rect x="20.125" y="60.125" width="19.75" height="19.75" fill="black" stroke="#A9A9A9" stroke-width="0.25"/>
<rect x="20.125" y="100.125" width="19.75" height="19.75" fill="black" stroke="#A9A9A9" stroke-width="0.25"/>
<path d="M39.875 179.875C28.9975 179.808 20.1924 171.002 20.1254 160.125H39.875V179.875Z" fill="black" stroke="#A9A9A9" stroke-width="0.25"/>
<rect x="20.125" y="140.125" width="19.75" height="19.75" fill="black" stroke="#A9A9A9" stroke-width="0.25"/>
<rect x="100.125" y="140.125" width="19.75" height="19.75" fill="black" stroke="#A9A9A9" stroke-width="0.25"/>
<path d="M159.875 199.875C148.998 199.808 140.192 191.002 140.125 180.125H159.875V199.875Z" fill="black" stroke="#A9A9A9" stroke-width="0.25"/>
<path d="M140.125 160.125C151.002 160.192 159.808 168.998 159.875 179.875H140.125V160.125Z" fill="black" stroke="#A9A9A9" stroke-width="0.25"/>
<path d="M60.125 180.125H79.8746C79.8076 191.002 71.0025 199.808 60.125 199.875V180.125Z" fill="black" stroke="#A9A9A9" stroke-width="0.25"/>
<path d="M60.1254 179.875C60.1924 168.998 68.9975 160.192 79.875 160.125V179.875H60.1254Z" fill="black" stroke="#A9A9A9" stroke-width="0.25"/>
<path d="M139.875 179.875C128.998 179.808 120.192 171.002 120.125 160.125H139.875V179.875Z" fill="black" stroke="#A9A9A9" stroke-width="0.25"/>
<path d="M120.125 140.125C131.002 140.192 139.808 148.998 139.875 159.875H120.125V140.125Z" fill="black" stroke="#A9A9A9" stroke-width="0.25"/>
<rect x="180.125" y="40.125" width="19.75" height="19.75" fill="black" stroke="#A9A9A9" stroke-width="0.25"/>
<rect x="180.125" y="80.125" width="19.75" height="19.75" fill="black" stroke="#A9A9A9" stroke-width="0.25"/>
<rect x="180.125" y="120.125" width="19.75" height="19.75" fill="black" stroke="#A9A9A9" stroke-width="0.25"/>
<path d="M180.125 30C180.125 24.5462 184.546 20.125 190 20.125C195.454 20.125 199.875 24.5462 199.875 30V39.875H180.125V30Z" fill="black" stroke="#A9A9A9" stroke-width="0.25"/>
<rect x="180.125" y="60.125" width="19.75" height="19.75" fill="black" stroke="#A9A9A9" stroke-width="0.25"/>
<rect x="180.125" y="100.125" width="19.75" height="19.75" fill="black" stroke="#A9A9A9" stroke-width="0.25"/>
<path d="M180.125 160.125H199.875C199.808 171.002 191.002 179.808 180.125 179.875V160.125Z" fill="black" stroke="#A9A9A9" stroke-width="0.25"/>
<rect x="180.125" y="140.125" width="19.75" height="19.75" fill="black" stroke="#A9A9A9" stroke-width="0.25"/>
</svg>
