<svg width="240" height="240" viewBox="0 0 240 240" fill="none" xmlns="http://www.w3.org/2000/svg">
<path d="M99.875 99.8746C88.9975 99.8076 80.1924 91.0025 80.1254 80.125H99.875V99.8746Z" fill="black" stroke="#A9A9A9" stroke-width="0.25"/>
<path d="M80.125 60.1254C91.0025 60.1924 99.8076 68.9975 99.8746 79.875H80.125V60.1254Z" fill="black" stroke="#A9A9A9" stroke-width="0.25"/>
<path d="M80.125 140.125H99.8746C99.8076 151.002 91.0025 159.808 80.125 159.875V140.125Z" fill="black" stroke="#A9A9A9" stroke-width="0.25"/>
<path d="M80.1254 139.875C80.1924 128.998 88.9975 120.192 99.875 120.125V139.875H80.1254Z" fill="black" stroke="#A9A9A9" stroke-width="0.25"/>
<path d="M59.875 59.8746C48.9975 59.8076 40.1924 51.0025 40.1254 40.125H59.875V59.8746Z" fill="black" stroke="#A9A9A9" stroke-width="0.25"/>
<path d="M40.1254 179.875C40.1924 168.998 48.9975 160.192 59.875 160.125V179.875H40.1254Z" fill="black" stroke="#A9A9A9" stroke-width="0.25"/>
<path d="M40.125 20.1254C51.0025 20.1924 59.8076 28.9975 59.8746 39.875H40.125V20.1254Z" fill="black" stroke="#A9A9A9" stroke-width="0.25"/>
<path d="M40.125 180.125H59.8746C59.8076 191.002 51.0025 199.808 40.125 199.875V180.125Z" fill="black" stroke="#A9A9A9" stroke-width="0.25"/>
<path d="M120.125 99.875C120.192 88.9975 128.998 80.1924 139.875 80.1254V99.875H120.125Z" fill="black" stroke="#A9A9A9" stroke-width="0.25"/>
<rect x="120.125" y="100.125" width="19.75" height="19.75" fill="black" stroke="#A9A9A9" stroke-width="0.25"/>
<path d="M139.875 139.875C128.998 139.808 120.192 131.002 120.125 120.125H139.875V139.875Z" fill="black" stroke="#A9A9A9" stroke-width="0.25"/>
<path d="M180.125 40.125H199.875C199.808 51.0025 191.002 59.8076 180.125 59.8746V40.125Z" fill="black" stroke="#A9A9A9" stroke-width="0.25"/>
<path d="M180.125 160.125C191.002 160.192 199.808 168.998 199.875 179.875H180.125V160.125Z" fill="black" stroke="#A9A9A9" stroke-width="0.25"/>
<path d="M180.125 39.875C180.192 28.9975 188.998 20.1924 199.875 20.1254V39.875H180.125Z" fill="black" stroke="#A9A9A9" stroke-width="0.25"/>
<path d="M199.875 199.875C188.998 199.808 180.192 191.002 180.125 180.125H199.875V199.875Z" fill="black" stroke="#A9A9A9" stroke-width="0.25"/>
<path d="M39.875 39.8746C28.9975 39.8076 20.1924 31.0025 20.1254 20.125H39.875V39.8746Z" fill="black" stroke="#A9A9A9" stroke-width="0.25"/>
<path d="M20.1254 199.875C20.1924 188.998 28.9975 180.192 39.875 180.125V199.875H20.1254Z" fill="black" stroke="#A9A9A9" stroke-width="0.25"/>
<path d="M100.125 80.1254C111.002 80.1924 119.808 88.9975 119.875 99.875H100.125V80.1254Z" fill="black" stroke="#A9A9A9" stroke-width="0.25"/>
<rect x="100.125" y="100.125" width="19.75" height="19.75" fill="black" stroke="#A9A9A9" stroke-width="0.25"/>
<path d="M100.125 120.125H119.875C119.808 131.002 111.002 139.808 100.125 139.875V120.125Z" fill="black" stroke="#A9A9A9" stroke-width="0.25"/>
<path d="M160.125 59.875C160.192 48.9975 168.998 40.1924 179.875 40.1254V59.875H160.125Z" fill="black" stroke="#A9A9A9" stroke-width="0.25"/>
<path d="M179.875 179.875C168.998 179.808 160.192 171.002 160.125 160.125H179.875V179.875Z" fill="black" stroke="#A9A9A9" stroke-width="0.25"/>
<path d="M160.125 60.125H179.875C179.808 71.0025 171.002 79.8076 160.125 79.8746V60.125Z" fill="black" stroke="#A9A9A9" stroke-width="0.25"/>
<path d="M160.125 140.125C171.002 140.192 179.808 148.998 179.875 159.875H160.125V140.125Z" fill="black" stroke="#A9A9A9" stroke-width="0.25"/>
<path d="M60.125 40.1254C71.0025 40.1924 79.8076 48.9975 79.8746 59.875H60.125V40.1254Z" fill="black" stroke="#A9A9A9" stroke-width="0.25"/>
<path d="M60.125 160.125H79.8746C79.8076 171.002 71.0025 179.808 60.125 179.875V160.125Z" fill="black" stroke="#A9A9A9" stroke-width="0.25"/>
<path d="M79.875 79.8746C68.9975 79.8076 60.1924 71.0025 60.1254 60.125H79.875V79.8746Z" fill="black" stroke="#A9A9A9" stroke-width="0.25"/>
<path d="M60.1254 159.875C60.1924 148.998 68.9975 140.192 79.875 140.125V159.875H60.1254Z" fill="black" stroke="#A9A9A9" stroke-width="0.25"/>
<path d="M140.125 80.125H159.875C159.808 91.0025 151.002 99.8076 140.125 99.8746V80.125Z" fill="black" stroke="#A9A9A9" stroke-width="0.25"/>
<path d="M140.125 79.875C140.192 68.9975 148.998 60.1924 159.875 60.1254V79.875H140.125Z" fill="black" stroke="#A9A9A9" stroke-width="0.25"/>
<path d="M159.875 159.875C148.998 159.808 140.192 151.002 140.125 140.125H159.875V159.875Z" fill="black" stroke="#A9A9A9" stroke-width="0.25"/>
<path d="M140.125 120.125C151.002 120.192 159.808 128.998 159.875 139.875H140.125V120.125Z" fill="black" stroke="#A9A9A9" stroke-width="0.25"/>
<path d="M200.125 20.125H219.875C219.808 31.0025 211.002 39.8076 200.125 39.8746V20.125Z" fill="black" stroke="#A9A9A9" stroke-width="0.25"/>
<path d="M200.125 180.125C211.002 180.192 219.808 188.998 219.875 199.875H200.125V180.125Z" fill="black" stroke="#A9A9A9" stroke-width="0.25"/>
</svg>
