<svg width="240" height="240" viewBox="0 0 240 240" fill="none" xmlns="http://www.w3.org/2000/svg">
<rect x="140.125" y="20.125" width="19.75" height="19.75" fill="black" stroke="#A9A9A9" stroke-width="0.25"/>
<rect x="99.875" y="199.875" width="19.75" height="19.75" transform="rotate(-180 99.875 199.875)" fill="black" stroke="#A9A9A9" stroke-width="0.25"/>
<rect x="160.125" y="20.125" width="19.75" height="19.75" fill="black" stroke="#A9A9A9" stroke-width="0.25"/>
<rect x="79.875" y="199.875" width="19.75" height="19.75" transform="rotate(-180 79.875 199.875)" fill="black" stroke="#A9A9A9" stroke-width="0.25"/>
<rect x="120.125" y="20.125" width="19.75" height="19.75" fill="black" stroke="#A9A9A9" stroke-width="0.25"/>
<rect x="119.875" y="199.875" width="19.75" height="19.75" transform="rotate(-180 119.875 199.875)" fill="black" stroke="#A9A9A9" stroke-width="0.25"/>
<rect x="-0.125" y="0.125" width="19.75" height="19.75" transform="matrix(-1 0 0 1 99.75 20)" fill="black" stroke="#A9A9A9" stroke-width="0.25"/>
<rect x="0.125" y="-0.125" width="19.75" height="19.75" transform="matrix(1 0 0 -1 140 199.75)" fill="black" stroke="#A9A9A9" stroke-width="0.25"/>
<rect x="-0.125" y="0.125" width="19.75" height="19.75" transform="matrix(-1 0 0 1 79.75 20)" fill="black" stroke="#A9A9A9" stroke-width="0.25"/>
<rect x="0.125" y="-0.125" width="19.75" height="19.75" transform="matrix(1 0 0 -1 160 199.75)" fill="black" stroke="#A9A9A9" stroke-width="0.25"/>
<rect x="-0.125" y="0.125" width="19.75" height="19.75" transform="matrix(-1 0 0 1 119.75 20)" fill="black" stroke="#A9A9A9" stroke-width="0.25"/>
<rect x="0.125" y="-0.125" width="19.75" height="19.75" transform="matrix(1 0 0 -1 120 199.75)" fill="black" stroke="#A9A9A9" stroke-width="0.25"/>
<path d="M59.875 20.125H50C44.5462 20.125 40.125 24.5462 40.125 30C40.125 35.4538 44.5462 39.875 50 39.875H59.875V20.125Z" fill="black" stroke="#A9A9A9" stroke-width="0.25"/>
<path d="M79.875 100.125H70C64.5462 100.125 60.125 104.546 60.125 110C60.125 115.454 64.5462 119.875 70 119.875H79.875V100.125Z" fill="black" stroke="#A9A9A9" stroke-width="0.25"/>
<path d="M180.125 199.875H190C195.454 199.875 199.875 195.454 199.875 190C199.875 184.546 195.454 180.125 190 180.125H180.125V199.875Z" fill="black" stroke="#A9A9A9" stroke-width="0.25"/>
<path d="M160.125 119.875H170C175.454 119.875 179.875 115.454 179.875 110C179.875 104.546 175.454 100.125 170 100.125H160.125V119.875Z" fill="black" stroke="#A9A9A9" stroke-width="0.25"/>
<path d="M199.875 39.875C199.808 28.9975 191.002 20.1924 180.125 20.1254L180.125 39.875L199.875 39.875Z" fill="black" stroke="#A9A9A9" stroke-width="0.25"/>
<path d="M40.1254 180.125C40.1924 191.002 48.9975 199.808 59.875 199.875L59.875 180.125L40.1254 180.125Z" fill="black" stroke="#A9A9A9" stroke-width="0.25"/>
<path d="M159.875 60.1254C148.998 60.1924 140.192 68.9975 140.125 79.875H159.875V60.1254Z" fill="black" stroke="#A9A9A9" stroke-width="0.25"/>
<path d="M140.125 99.8746C151.002 99.8076 159.808 91.0025 159.875 80.125H140.125V99.8746Z" fill="black" stroke="#A9A9A9" stroke-width="0.25"/>
<path d="M180.125 59.8746C191.002 59.8076 199.808 51.0025 199.875 40.125H180.125V59.8746Z" fill="black" stroke="#A9A9A9" stroke-width="0.25"/>
<path d="M139.875 80.1254C128.998 80.1924 120.192 88.9975 120.125 99.875H139.875V80.1254Z" fill="black" stroke="#A9A9A9" stroke-width="0.25"/>
<path d="M160.125 79.8746C171.002 79.8076 179.808 71.0025 179.875 60.125H160.125V79.8746Z" fill="black" stroke="#A9A9A9" stroke-width="0.25"/>
<path d="M179.875 40.1254C168.998 40.1924 160.192 48.9975 160.125 59.875H179.875V40.1254Z" fill="black" stroke="#A9A9A9" stroke-width="0.25"/>
<rect x="80.125" y="100.125" width="19.75" height="19.75" fill="black" stroke="#A9A9A9" stroke-width="0.25"/>
<rect x="120.125" y="100.125" width="19.75" height="19.75" fill="black" stroke="#A9A9A9" stroke-width="0.25"/>
<rect x="140.125" y="100.125" width="19.75" height="19.75" fill="black" stroke="#A9A9A9" stroke-width="0.25"/>
<rect x="100.125" y="100.125" width="19.75" height="19.75" fill="black" stroke="#A9A9A9" stroke-width="0.25"/>
<path d="M60.125 160.125H79.8746C79.8076 171.002 71.0025 179.808 60.125 179.875V160.125Z" fill="black" stroke="#A9A9A9" stroke-width="0.25"/>
<path d="M60.1254 159.875C60.1924 148.998 68.9975 140.192 79.875 140.125V159.875H60.1254Z" fill="black" stroke="#A9A9A9" stroke-width="0.25"/>
<path d="M100.125 120.125H119.875C119.808 131.002 111.002 139.808 100.125 139.875V120.125Z" fill="black" stroke="#A9A9A9" stroke-width="0.25"/>
<path d="M80.125 140.125H99.8746C99.8076 151.002 91.0025 159.808 80.125 159.875V140.125Z" fill="black" stroke="#A9A9A9" stroke-width="0.25"/>
<path d="M80.1254 139.875C80.1924 128.998 88.9975 120.192 99.875 120.125V139.875H80.1254Z" fill="black" stroke="#A9A9A9" stroke-width="0.25"/>
<path d="M40.1254 179.875C40.1924 168.998 48.9975 160.192 59.875 160.125V179.875H40.1254Z" fill="black" stroke="#A9A9A9" stroke-width="0.25"/>
</svg>
