<svg width="106" height="106" viewBox="0 0 106 106" fill="none" xmlns="http://www.w3.org/2000/svg">
<path d="M96.0107 0.867188H9.98285C4.94625 0.867188 0.863281 4.95016 0.863281 9.98675V96.0147C0.863281 101.051 4.94625 105.134 9.98285 105.134H96.0107C101.047 105.134 105.13 101.051 105.13 96.0147V9.98675C105.13 4.95016 101.047 0.867188 96.0107 0.867188Z" fill="#D02780"/>
<path fill-rule="evenodd" clip-rule="evenodd" d="M0 12.1308C0 5.43114 5.43114 0 12.1308 0H93.8692C100.569 0 106 5.43114 106 12.1308V93.8692C106 100.569 100.569 106 93.8692 106H12.1308C5.43114 106 0 100.569 0 93.8692V12.1308ZM12.1308 6.93188C9.25951 6.93188 6.93188 9.25951 6.93188 12.1308V93.8692C6.93188 96.7405 9.25951 99.0681 12.1308 99.0681H93.8692C96.7405 99.0681 99.0681 96.7405 99.0681 93.8692V12.1308C99.0681 9.25951 96.7405 6.93188 93.8692 6.93188H12.1308Z" fill="black" fill-opacity="0.1"/>
<path d="M85.8152 46.9513C87.8006 46.9513 88.7933 45.7601 88.7933 44.2711C88.7933 42.8813 87.8006 41.5908 85.8152 41.5908C83.9291 41.5908 82.9365 42.782 82.9365 44.2711C82.8372 45.7601 83.8299 46.9513 85.8152 46.9513Z" fill="white"/>
<path d="M51.568 48.8379H46.2075V63.331H51.568V48.8379Z" fill="white"/>
<path d="M88.4972 48.8379H83.1367V63.331H88.4972V48.8379Z" fill="white"/>
<path d="M70.0307 63.331L80.9501 42.8818H74.6963L67.7475 56.283L60.7988 42.8818H54.5449L65.4644 63.331H70.0307Z" fill="white"/>
<path d="M33.1049 63.331L44.0244 42.8818H37.7705L30.7225 56.283L23.7737 42.8818H17.6191L28.4393 63.331H33.1049Z" fill="white"/>
<path d="M48.7889 46.9513C50.7743 46.9513 51.767 45.7601 51.767 44.2711C51.767 42.8813 50.7743 41.5908 48.7889 41.5908C46.9028 41.5908 45.9102 42.782 45.9102 44.2711C45.9102 45.7601 46.9028 46.9513 48.7889 46.9513Z" fill="white"/>
</svg>
